G04 #@! TF.GenerationSoftware,KiCad,Pcbnew,(5.1.2)-2*
G04 #@! TF.CreationDate,2022-01-25T10:57:59+01:00*
G04 #@! TF.ProjectId,SMuFF-Ifc2-ESP32,534d7546-462d-4496-9663-322d45535033,rev?*
G04 #@! TF.SameCoordinates,Original*
G04 #@! TF.FileFunction,Soldermask,Top*
G04 #@! TF.FilePolarity,Negative*
%FSLAX46Y46*%
G04 Gerber Fmt 4.6, Leading zero omitted, Abs format (unit mm)*
G04 Created by KiCad (PCBNEW (5.1.2)-2) date 2022-01-25 10:57:59*
%MOMM*%
%LPD*%
G04 APERTURE LIST*
%ADD10C,0.100000*%
G04 APERTURE END LIST*
D10*
G36*
X139248626Y-110239037D02*
G01*
X139418465Y-110290557D01*
X139418467Y-110290558D01*
X139574989Y-110374221D01*
X139712186Y-110486814D01*
X139795448Y-110588271D01*
X139824778Y-110624009D01*
X139908443Y-110780534D01*
X139959963Y-110950373D01*
X139973000Y-111082742D01*
X139973000Y-111421257D01*
X139959963Y-111553626D01*
X139908443Y-111723466D01*
X139824778Y-111879991D01*
X139795448Y-111915729D01*
X139712186Y-112017186D01*
X139617250Y-112095097D01*
X139574991Y-112129778D01*
X139418466Y-112213443D01*
X139248627Y-112264963D01*
X139072000Y-112282359D01*
X138895374Y-112264963D01*
X138725535Y-112213443D01*
X138569010Y-112129778D01*
X138431815Y-112017185D01*
X138319222Y-111879991D01*
X138235557Y-111723466D01*
X138184037Y-111553627D01*
X138171000Y-111421258D01*
X138171000Y-111082743D01*
X138184037Y-110950374D01*
X138235557Y-110780535D01*
X138319222Y-110624010D01*
X138319223Y-110624009D01*
X138431814Y-110486814D01*
X138533271Y-110403552D01*
X138569009Y-110374222D01*
X138725534Y-110290557D01*
X138895373Y-110239037D01*
X139072000Y-110221641D01*
X139248626Y-110239037D01*
X139248626Y-110239037D01*
G37*
G36*
X146948626Y-110239037D02*
G01*
X147118465Y-110290557D01*
X147118467Y-110290558D01*
X147274989Y-110374221D01*
X147412186Y-110486814D01*
X147495448Y-110588271D01*
X147524778Y-110624009D01*
X147608443Y-110780534D01*
X147659963Y-110950373D01*
X147673000Y-111082742D01*
X147673000Y-111421257D01*
X147659963Y-111553626D01*
X147608443Y-111723466D01*
X147524778Y-111879991D01*
X147495448Y-111915729D01*
X147412186Y-112017186D01*
X147317250Y-112095097D01*
X147274991Y-112129778D01*
X147118466Y-112213443D01*
X146948627Y-112264963D01*
X146772000Y-112282359D01*
X146595374Y-112264963D01*
X146425535Y-112213443D01*
X146269010Y-112129778D01*
X146131815Y-112017185D01*
X146019222Y-111879991D01*
X145935557Y-111723466D01*
X145884037Y-111553627D01*
X145871000Y-111421258D01*
X145871000Y-111082743D01*
X145884037Y-110950374D01*
X145935557Y-110780535D01*
X146019222Y-110624010D01*
X146019223Y-110624009D01*
X146131814Y-110486814D01*
X146233271Y-110403552D01*
X146269009Y-110374222D01*
X146425534Y-110290557D01*
X146595373Y-110239037D01*
X146772000Y-110221641D01*
X146948626Y-110239037D01*
X146948626Y-110239037D01*
G37*
G36*
X149448626Y-110239037D02*
G01*
X149618465Y-110290557D01*
X149618467Y-110290558D01*
X149774989Y-110374221D01*
X149912186Y-110486814D01*
X149995448Y-110588271D01*
X150024778Y-110624009D01*
X150108443Y-110780534D01*
X150159963Y-110950373D01*
X150173000Y-111082742D01*
X150173000Y-111421257D01*
X150159963Y-111553626D01*
X150108443Y-111723466D01*
X150024778Y-111879991D01*
X149995448Y-111915729D01*
X149912186Y-112017186D01*
X149817250Y-112095097D01*
X149774991Y-112129778D01*
X149618466Y-112213443D01*
X149448627Y-112264963D01*
X149272000Y-112282359D01*
X149095374Y-112264963D01*
X148925535Y-112213443D01*
X148769010Y-112129778D01*
X148631815Y-112017185D01*
X148519222Y-111879991D01*
X148435557Y-111723466D01*
X148384037Y-111553627D01*
X148371000Y-111421258D01*
X148371000Y-111082743D01*
X148384037Y-110950374D01*
X148435557Y-110780535D01*
X148519222Y-110624010D01*
X148519223Y-110624009D01*
X148631814Y-110486814D01*
X148733271Y-110403552D01*
X148769009Y-110374222D01*
X148925534Y-110290557D01*
X149095373Y-110239037D01*
X149272000Y-110221641D01*
X149448626Y-110239037D01*
X149448626Y-110239037D01*
G37*
G36*
X151948626Y-110239037D02*
G01*
X152118465Y-110290557D01*
X152118467Y-110290558D01*
X152274989Y-110374221D01*
X152412186Y-110486814D01*
X152495448Y-110588271D01*
X152524778Y-110624009D01*
X152608443Y-110780534D01*
X152659963Y-110950373D01*
X152673000Y-111082742D01*
X152673000Y-111421257D01*
X152659963Y-111553626D01*
X152608443Y-111723466D01*
X152524778Y-111879991D01*
X152495448Y-111915729D01*
X152412186Y-112017186D01*
X152317250Y-112095097D01*
X152274991Y-112129778D01*
X152118466Y-112213443D01*
X151948627Y-112264963D01*
X151772000Y-112282359D01*
X151595374Y-112264963D01*
X151425535Y-112213443D01*
X151269010Y-112129778D01*
X151131815Y-112017185D01*
X151019222Y-111879991D01*
X150935557Y-111723466D01*
X150884037Y-111553627D01*
X150871000Y-111421258D01*
X150871000Y-111082743D01*
X150884037Y-110950374D01*
X150935557Y-110780535D01*
X151019222Y-110624010D01*
X151019223Y-110624009D01*
X151131814Y-110486814D01*
X151233271Y-110403552D01*
X151269009Y-110374222D01*
X151425534Y-110290557D01*
X151595373Y-110239037D01*
X151772000Y-110221641D01*
X151948626Y-110239037D01*
X151948626Y-110239037D01*
G37*
G36*
X154448626Y-110239037D02*
G01*
X154618465Y-110290557D01*
X154618467Y-110290558D01*
X154774989Y-110374221D01*
X154912186Y-110486814D01*
X154995448Y-110588271D01*
X155024778Y-110624009D01*
X155108443Y-110780534D01*
X155159963Y-110950373D01*
X155173000Y-111082742D01*
X155173000Y-111421257D01*
X155159963Y-111553626D01*
X155108443Y-111723466D01*
X155024778Y-111879991D01*
X154995448Y-111915729D01*
X154912186Y-112017186D01*
X154817250Y-112095097D01*
X154774991Y-112129778D01*
X154618466Y-112213443D01*
X154448627Y-112264963D01*
X154272000Y-112282359D01*
X154095374Y-112264963D01*
X153925535Y-112213443D01*
X153769010Y-112129778D01*
X153631815Y-112017185D01*
X153519222Y-111879991D01*
X153435557Y-111723466D01*
X153384037Y-111553627D01*
X153371000Y-111421258D01*
X153371000Y-111082743D01*
X153384037Y-110950374D01*
X153435557Y-110780535D01*
X153519222Y-110624010D01*
X153519223Y-110624009D01*
X153631814Y-110486814D01*
X153733271Y-110403552D01*
X153769009Y-110374222D01*
X153925534Y-110290557D01*
X154095373Y-110239037D01*
X154272000Y-110221641D01*
X154448626Y-110239037D01*
X154448626Y-110239037D01*
G37*
G36*
X113928626Y-110239037D02*
G01*
X114098465Y-110290557D01*
X114098467Y-110290558D01*
X114254989Y-110374221D01*
X114392186Y-110486814D01*
X114475448Y-110588271D01*
X114504778Y-110624009D01*
X114588443Y-110780534D01*
X114639963Y-110950373D01*
X114653000Y-111082742D01*
X114653000Y-111421257D01*
X114639963Y-111553626D01*
X114588443Y-111723466D01*
X114504778Y-111879991D01*
X114475448Y-111915729D01*
X114392186Y-112017186D01*
X114297250Y-112095097D01*
X114254991Y-112129778D01*
X114098466Y-112213443D01*
X113928627Y-112264963D01*
X113752000Y-112282359D01*
X113575374Y-112264963D01*
X113405535Y-112213443D01*
X113249010Y-112129778D01*
X113111815Y-112017185D01*
X112999222Y-111879991D01*
X112915557Y-111723466D01*
X112864037Y-111553627D01*
X112851000Y-111421258D01*
X112851000Y-111082743D01*
X112864037Y-110950374D01*
X112915557Y-110780535D01*
X112999222Y-110624010D01*
X112999223Y-110624009D01*
X113111814Y-110486814D01*
X113213271Y-110403552D01*
X113249009Y-110374222D01*
X113405534Y-110290557D01*
X113575373Y-110239037D01*
X113752000Y-110221641D01*
X113928626Y-110239037D01*
X113928626Y-110239037D01*
G37*
G36*
X116428626Y-110239037D02*
G01*
X116598465Y-110290557D01*
X116598467Y-110290558D01*
X116754989Y-110374221D01*
X116892186Y-110486814D01*
X116975448Y-110588271D01*
X117004778Y-110624009D01*
X117088443Y-110780534D01*
X117139963Y-110950373D01*
X117153000Y-111082742D01*
X117153000Y-111421257D01*
X117139963Y-111553626D01*
X117088443Y-111723466D01*
X117004778Y-111879991D01*
X116975448Y-111915729D01*
X116892186Y-112017186D01*
X116797250Y-112095097D01*
X116754991Y-112129778D01*
X116598466Y-112213443D01*
X116428627Y-112264963D01*
X116252000Y-112282359D01*
X116075374Y-112264963D01*
X115905535Y-112213443D01*
X115749010Y-112129778D01*
X115611815Y-112017185D01*
X115499222Y-111879991D01*
X115415557Y-111723466D01*
X115364037Y-111553627D01*
X115351000Y-111421258D01*
X115351000Y-111082743D01*
X115364037Y-110950374D01*
X115415557Y-110780535D01*
X115499222Y-110624010D01*
X115499223Y-110624009D01*
X115611814Y-110486814D01*
X115713271Y-110403552D01*
X115749009Y-110374222D01*
X115905534Y-110290557D01*
X116075373Y-110239037D01*
X116252000Y-110221641D01*
X116428626Y-110239037D01*
X116428626Y-110239037D01*
G37*
G36*
X118928626Y-110239037D02*
G01*
X119098465Y-110290557D01*
X119098467Y-110290558D01*
X119254989Y-110374221D01*
X119392186Y-110486814D01*
X119475448Y-110588271D01*
X119504778Y-110624009D01*
X119588443Y-110780534D01*
X119639963Y-110950373D01*
X119653000Y-111082742D01*
X119653000Y-111421257D01*
X119639963Y-111553626D01*
X119588443Y-111723466D01*
X119504778Y-111879991D01*
X119475448Y-111915729D01*
X119392186Y-112017186D01*
X119297250Y-112095097D01*
X119254991Y-112129778D01*
X119098466Y-112213443D01*
X118928627Y-112264963D01*
X118752000Y-112282359D01*
X118575374Y-112264963D01*
X118405535Y-112213443D01*
X118249010Y-112129778D01*
X118111815Y-112017185D01*
X117999222Y-111879991D01*
X117915557Y-111723466D01*
X117864037Y-111553627D01*
X117851000Y-111421258D01*
X117851000Y-111082743D01*
X117864037Y-110950374D01*
X117915557Y-110780535D01*
X117999222Y-110624010D01*
X117999223Y-110624009D01*
X118111814Y-110486814D01*
X118213271Y-110403552D01*
X118249009Y-110374222D01*
X118405534Y-110290557D01*
X118575373Y-110239037D01*
X118752000Y-110221641D01*
X118928626Y-110239037D01*
X118928626Y-110239037D01*
G37*
G36*
X121428626Y-110239037D02*
G01*
X121598465Y-110290557D01*
X121598467Y-110290558D01*
X121754989Y-110374221D01*
X121892186Y-110486814D01*
X121975448Y-110588271D01*
X122004778Y-110624009D01*
X122088443Y-110780534D01*
X122139963Y-110950373D01*
X122153000Y-111082742D01*
X122153000Y-111421257D01*
X122139963Y-111553626D01*
X122088443Y-111723466D01*
X122004778Y-111879991D01*
X121975448Y-111915729D01*
X121892186Y-112017186D01*
X121797250Y-112095097D01*
X121754991Y-112129778D01*
X121598466Y-112213443D01*
X121428627Y-112264963D01*
X121252000Y-112282359D01*
X121075374Y-112264963D01*
X120905535Y-112213443D01*
X120749010Y-112129778D01*
X120611815Y-112017185D01*
X120499222Y-111879991D01*
X120415557Y-111723466D01*
X120364037Y-111553627D01*
X120351000Y-111421258D01*
X120351000Y-111082743D01*
X120364037Y-110950374D01*
X120415557Y-110780535D01*
X120499222Y-110624010D01*
X120499223Y-110624009D01*
X120611814Y-110486814D01*
X120713271Y-110403552D01*
X120749009Y-110374222D01*
X120905534Y-110290557D01*
X121075373Y-110239037D01*
X121252000Y-110221641D01*
X121428626Y-110239037D01*
X121428626Y-110239037D01*
G37*
G36*
X134248626Y-110239037D02*
G01*
X134418465Y-110290557D01*
X134418467Y-110290558D01*
X134574989Y-110374221D01*
X134712186Y-110486814D01*
X134795448Y-110588271D01*
X134824778Y-110624009D01*
X134908443Y-110780534D01*
X134959963Y-110950373D01*
X134973000Y-111082742D01*
X134973000Y-111421257D01*
X134959963Y-111553626D01*
X134908443Y-111723466D01*
X134824778Y-111879991D01*
X134795448Y-111915729D01*
X134712186Y-112017186D01*
X134617250Y-112095097D01*
X134574991Y-112129778D01*
X134418466Y-112213443D01*
X134248627Y-112264963D01*
X134072000Y-112282359D01*
X133895374Y-112264963D01*
X133725535Y-112213443D01*
X133569010Y-112129778D01*
X133431815Y-112017185D01*
X133319222Y-111879991D01*
X133235557Y-111723466D01*
X133184037Y-111553627D01*
X133171000Y-111421258D01*
X133171000Y-111082743D01*
X133184037Y-110950374D01*
X133235557Y-110780535D01*
X133319222Y-110624010D01*
X133319223Y-110624009D01*
X133431814Y-110486814D01*
X133533271Y-110403552D01*
X133569009Y-110374222D01*
X133725534Y-110290557D01*
X133895373Y-110239037D01*
X134072000Y-110221641D01*
X134248626Y-110239037D01*
X134248626Y-110239037D01*
G37*
G36*
X136748626Y-110239037D02*
G01*
X136918465Y-110290557D01*
X136918467Y-110290558D01*
X137074989Y-110374221D01*
X137212186Y-110486814D01*
X137295448Y-110588271D01*
X137324778Y-110624009D01*
X137408443Y-110780534D01*
X137459963Y-110950373D01*
X137473000Y-111082742D01*
X137473000Y-111421257D01*
X137459963Y-111553626D01*
X137408443Y-111723466D01*
X137324778Y-111879991D01*
X137295448Y-111915729D01*
X137212186Y-112017186D01*
X137117250Y-112095097D01*
X137074991Y-112129778D01*
X136918466Y-112213443D01*
X136748627Y-112264963D01*
X136572000Y-112282359D01*
X136395374Y-112264963D01*
X136225535Y-112213443D01*
X136069010Y-112129778D01*
X135931815Y-112017185D01*
X135819222Y-111879991D01*
X135735557Y-111723466D01*
X135684037Y-111553627D01*
X135671000Y-111421258D01*
X135671000Y-111082743D01*
X135684037Y-110950374D01*
X135735557Y-110780535D01*
X135819222Y-110624010D01*
X135819223Y-110624009D01*
X135931814Y-110486814D01*
X136033271Y-110403552D01*
X136069009Y-110374222D01*
X136225534Y-110290557D01*
X136395373Y-110239037D01*
X136572000Y-110221641D01*
X136748626Y-110239037D01*
X136748626Y-110239037D01*
G37*
G36*
X145030600Y-110229989D02*
G01*
X145063652Y-110240015D01*
X145094103Y-110256292D01*
X145120799Y-110278201D01*
X145142708Y-110304897D01*
X145158985Y-110335348D01*
X145169011Y-110368400D01*
X145173000Y-110408903D01*
X145173000Y-112095097D01*
X145169011Y-112135600D01*
X145158985Y-112168652D01*
X145142708Y-112199103D01*
X145120799Y-112225799D01*
X145094103Y-112247708D01*
X145063652Y-112263985D01*
X145030600Y-112274011D01*
X144990097Y-112278000D01*
X143553903Y-112278000D01*
X143513400Y-112274011D01*
X143480348Y-112263985D01*
X143449897Y-112247708D01*
X143423201Y-112225799D01*
X143401292Y-112199103D01*
X143385015Y-112168652D01*
X143374989Y-112135600D01*
X143371000Y-112095097D01*
X143371000Y-110408903D01*
X143374989Y-110368400D01*
X143385015Y-110335348D01*
X143401292Y-110304897D01*
X143423201Y-110278201D01*
X143449897Y-110256292D01*
X143480348Y-110240015D01*
X143513400Y-110229989D01*
X143553903Y-110226000D01*
X144990097Y-110226000D01*
X145030600Y-110229989D01*
X145030600Y-110229989D01*
G37*
G36*
X112010600Y-110229989D02*
G01*
X112043652Y-110240015D01*
X112074103Y-110256292D01*
X112100799Y-110278201D01*
X112122708Y-110304897D01*
X112138985Y-110335348D01*
X112149011Y-110368400D01*
X112153000Y-110408903D01*
X112153000Y-112095097D01*
X112149011Y-112135600D01*
X112138985Y-112168652D01*
X112122708Y-112199103D01*
X112100799Y-112225799D01*
X112074103Y-112247708D01*
X112043652Y-112263985D01*
X112010600Y-112274011D01*
X111970097Y-112278000D01*
X110533903Y-112278000D01*
X110493400Y-112274011D01*
X110460348Y-112263985D01*
X110429897Y-112247708D01*
X110403201Y-112225799D01*
X110381292Y-112199103D01*
X110365015Y-112168652D01*
X110354989Y-112135600D01*
X110351000Y-112095097D01*
X110351000Y-110408903D01*
X110354989Y-110368400D01*
X110365015Y-110335348D01*
X110381292Y-110304897D01*
X110403201Y-110278201D01*
X110429897Y-110256292D01*
X110460348Y-110240015D01*
X110493400Y-110229989D01*
X110533903Y-110226000D01*
X111970097Y-110226000D01*
X112010600Y-110229989D01*
X112010600Y-110229989D01*
G37*
G36*
X132330600Y-110229989D02*
G01*
X132363652Y-110240015D01*
X132394103Y-110256292D01*
X132420799Y-110278201D01*
X132442708Y-110304897D01*
X132458985Y-110335348D01*
X132469011Y-110368400D01*
X132473000Y-110408903D01*
X132473000Y-112095097D01*
X132469011Y-112135600D01*
X132458985Y-112168652D01*
X132442708Y-112199103D01*
X132420799Y-112225799D01*
X132394103Y-112247708D01*
X132363652Y-112263985D01*
X132330600Y-112274011D01*
X132290097Y-112278000D01*
X130853903Y-112278000D01*
X130813400Y-112274011D01*
X130780348Y-112263985D01*
X130749897Y-112247708D01*
X130723201Y-112225799D01*
X130701292Y-112199103D01*
X130685015Y-112168652D01*
X130674989Y-112135600D01*
X130671000Y-112095097D01*
X130671000Y-110408903D01*
X130674989Y-110368400D01*
X130685015Y-110335348D01*
X130701292Y-110304897D01*
X130723201Y-110278201D01*
X130749897Y-110256292D01*
X130780348Y-110240015D01*
X130813400Y-110229989D01*
X130853903Y-110226000D01*
X132290097Y-110226000D01*
X132330600Y-110229989D01*
X132330600Y-110229989D01*
G37*
G36*
X108949142Y-102850242D02*
G01*
X109097101Y-102911529D01*
X109230255Y-103000499D01*
X109343501Y-103113745D01*
X109432471Y-103246899D01*
X109493758Y-103394858D01*
X109525000Y-103551925D01*
X109525000Y-103712075D01*
X109493758Y-103869142D01*
X109432471Y-104017101D01*
X109343501Y-104150255D01*
X109230255Y-104263501D01*
X109097101Y-104352471D01*
X108949142Y-104413758D01*
X108792075Y-104445000D01*
X108631925Y-104445000D01*
X108474858Y-104413758D01*
X108326899Y-104352471D01*
X108193745Y-104263501D01*
X108080499Y-104150255D01*
X107991529Y-104017101D01*
X107930242Y-103869142D01*
X107899000Y-103712075D01*
X107899000Y-103551925D01*
X107930242Y-103394858D01*
X107991529Y-103246899D01*
X108080499Y-103113745D01*
X108193745Y-103000499D01*
X108326899Y-102911529D01*
X108474858Y-102850242D01*
X108631925Y-102819000D01*
X108792075Y-102819000D01*
X108949142Y-102850242D01*
X108949142Y-102850242D01*
G37*
G36*
X111489142Y-102850242D02*
G01*
X111637101Y-102911529D01*
X111770255Y-103000499D01*
X111883501Y-103113745D01*
X111972471Y-103246899D01*
X112033758Y-103394858D01*
X112065000Y-103551925D01*
X112065000Y-103712075D01*
X112033758Y-103869142D01*
X111972471Y-104017101D01*
X111883501Y-104150255D01*
X111770255Y-104263501D01*
X111637101Y-104352471D01*
X111489142Y-104413758D01*
X111332075Y-104445000D01*
X111171925Y-104445000D01*
X111014858Y-104413758D01*
X110866899Y-104352471D01*
X110733745Y-104263501D01*
X110620499Y-104150255D01*
X110531529Y-104017101D01*
X110470242Y-103869142D01*
X110439000Y-103712075D01*
X110439000Y-103551925D01*
X110470242Y-103394858D01*
X110531529Y-103246899D01*
X110620499Y-103113745D01*
X110733745Y-103000499D01*
X110866899Y-102911529D01*
X111014858Y-102850242D01*
X111171925Y-102819000D01*
X111332075Y-102819000D01*
X111489142Y-102850242D01*
X111489142Y-102850242D01*
G37*
G36*
X129269142Y-102850242D02*
G01*
X129417101Y-102911529D01*
X129550255Y-103000499D01*
X129663501Y-103113745D01*
X129752471Y-103246899D01*
X129813758Y-103394858D01*
X129845000Y-103551925D01*
X129845000Y-103712075D01*
X129813758Y-103869142D01*
X129752471Y-104017101D01*
X129663501Y-104150255D01*
X129550255Y-104263501D01*
X129417101Y-104352471D01*
X129269142Y-104413758D01*
X129112075Y-104445000D01*
X128951925Y-104445000D01*
X128794858Y-104413758D01*
X128646899Y-104352471D01*
X128513745Y-104263501D01*
X128400499Y-104150255D01*
X128311529Y-104017101D01*
X128250242Y-103869142D01*
X128219000Y-103712075D01*
X128219000Y-103551925D01*
X128250242Y-103394858D01*
X128311529Y-103246899D01*
X128400499Y-103113745D01*
X128513745Y-103000499D01*
X128646899Y-102911529D01*
X128794858Y-102850242D01*
X128951925Y-102819000D01*
X129112075Y-102819000D01*
X129269142Y-102850242D01*
X129269142Y-102850242D01*
G37*
G36*
X141969142Y-102850242D02*
G01*
X142117101Y-102911529D01*
X142250255Y-103000499D01*
X142363501Y-103113745D01*
X142452471Y-103246899D01*
X142513758Y-103394858D01*
X142545000Y-103551925D01*
X142545000Y-103712075D01*
X142513758Y-103869142D01*
X142452471Y-104017101D01*
X142363501Y-104150255D01*
X142250255Y-104263501D01*
X142117101Y-104352471D01*
X141969142Y-104413758D01*
X141812075Y-104445000D01*
X141651925Y-104445000D01*
X141494858Y-104413758D01*
X141346899Y-104352471D01*
X141213745Y-104263501D01*
X141100499Y-104150255D01*
X141011529Y-104017101D01*
X140950242Y-103869142D01*
X140919000Y-103712075D01*
X140919000Y-103551925D01*
X140950242Y-103394858D01*
X141011529Y-103246899D01*
X141100499Y-103113745D01*
X141213745Y-103000499D01*
X141346899Y-102911529D01*
X141494858Y-102850242D01*
X141651925Y-102819000D01*
X141812075Y-102819000D01*
X141969142Y-102850242D01*
X141969142Y-102850242D01*
G37*
G36*
X139429142Y-102850242D02*
G01*
X139577101Y-102911529D01*
X139710255Y-103000499D01*
X139823501Y-103113745D01*
X139912471Y-103246899D01*
X139973758Y-103394858D01*
X140005000Y-103551925D01*
X140005000Y-103712075D01*
X139973758Y-103869142D01*
X139912471Y-104017101D01*
X139823501Y-104150255D01*
X139710255Y-104263501D01*
X139577101Y-104352471D01*
X139429142Y-104413758D01*
X139272075Y-104445000D01*
X139111925Y-104445000D01*
X138954858Y-104413758D01*
X138806899Y-104352471D01*
X138673745Y-104263501D01*
X138560499Y-104150255D01*
X138471529Y-104017101D01*
X138410242Y-103869142D01*
X138379000Y-103712075D01*
X138379000Y-103551925D01*
X138410242Y-103394858D01*
X138471529Y-103246899D01*
X138560499Y-103113745D01*
X138673745Y-103000499D01*
X138806899Y-102911529D01*
X138954858Y-102850242D01*
X139111925Y-102819000D01*
X139272075Y-102819000D01*
X139429142Y-102850242D01*
X139429142Y-102850242D01*
G37*
G36*
X136889142Y-102850242D02*
G01*
X137037101Y-102911529D01*
X137170255Y-103000499D01*
X137283501Y-103113745D01*
X137372471Y-103246899D01*
X137433758Y-103394858D01*
X137465000Y-103551925D01*
X137465000Y-103712075D01*
X137433758Y-103869142D01*
X137372471Y-104017101D01*
X137283501Y-104150255D01*
X137170255Y-104263501D01*
X137037101Y-104352471D01*
X136889142Y-104413758D01*
X136732075Y-104445000D01*
X136571925Y-104445000D01*
X136414858Y-104413758D01*
X136266899Y-104352471D01*
X136133745Y-104263501D01*
X136020499Y-104150255D01*
X135931529Y-104017101D01*
X135870242Y-103869142D01*
X135839000Y-103712075D01*
X135839000Y-103551925D01*
X135870242Y-103394858D01*
X135931529Y-103246899D01*
X136020499Y-103113745D01*
X136133745Y-103000499D01*
X136266899Y-102911529D01*
X136414858Y-102850242D01*
X136571925Y-102819000D01*
X136732075Y-102819000D01*
X136889142Y-102850242D01*
X136889142Y-102850242D01*
G37*
G36*
X134349142Y-102850242D02*
G01*
X134497101Y-102911529D01*
X134630255Y-103000499D01*
X134743501Y-103113745D01*
X134832471Y-103246899D01*
X134893758Y-103394858D01*
X134925000Y-103551925D01*
X134925000Y-103712075D01*
X134893758Y-103869142D01*
X134832471Y-104017101D01*
X134743501Y-104150255D01*
X134630255Y-104263501D01*
X134497101Y-104352471D01*
X134349142Y-104413758D01*
X134192075Y-104445000D01*
X134031925Y-104445000D01*
X133874858Y-104413758D01*
X133726899Y-104352471D01*
X133593745Y-104263501D01*
X133480499Y-104150255D01*
X133391529Y-104017101D01*
X133330242Y-103869142D01*
X133299000Y-103712075D01*
X133299000Y-103551925D01*
X133330242Y-103394858D01*
X133391529Y-103246899D01*
X133480499Y-103113745D01*
X133593745Y-103000499D01*
X133726899Y-102911529D01*
X133874858Y-102850242D01*
X134031925Y-102819000D01*
X134192075Y-102819000D01*
X134349142Y-102850242D01*
X134349142Y-102850242D01*
G37*
G36*
X126729142Y-102850242D02*
G01*
X126877101Y-102911529D01*
X127010255Y-103000499D01*
X127123501Y-103113745D01*
X127212471Y-103246899D01*
X127273758Y-103394858D01*
X127305000Y-103551925D01*
X127305000Y-103712075D01*
X127273758Y-103869142D01*
X127212471Y-104017101D01*
X127123501Y-104150255D01*
X127010255Y-104263501D01*
X126877101Y-104352471D01*
X126729142Y-104413758D01*
X126572075Y-104445000D01*
X126411925Y-104445000D01*
X126254858Y-104413758D01*
X126106899Y-104352471D01*
X125973745Y-104263501D01*
X125860499Y-104150255D01*
X125771529Y-104017101D01*
X125710242Y-103869142D01*
X125679000Y-103712075D01*
X125679000Y-103551925D01*
X125710242Y-103394858D01*
X125771529Y-103246899D01*
X125860499Y-103113745D01*
X125973745Y-103000499D01*
X126106899Y-102911529D01*
X126254858Y-102850242D01*
X126411925Y-102819000D01*
X126572075Y-102819000D01*
X126729142Y-102850242D01*
X126729142Y-102850242D01*
G37*
G36*
X131809142Y-102850242D02*
G01*
X131957101Y-102911529D01*
X132090255Y-103000499D01*
X132203501Y-103113745D01*
X132292471Y-103246899D01*
X132353758Y-103394858D01*
X132385000Y-103551925D01*
X132385000Y-103712075D01*
X132353758Y-103869142D01*
X132292471Y-104017101D01*
X132203501Y-104150255D01*
X132090255Y-104263501D01*
X131957101Y-104352471D01*
X131809142Y-104413758D01*
X131652075Y-104445000D01*
X131491925Y-104445000D01*
X131334858Y-104413758D01*
X131186899Y-104352471D01*
X131053745Y-104263501D01*
X130940499Y-104150255D01*
X130851529Y-104017101D01*
X130790242Y-103869142D01*
X130759000Y-103712075D01*
X130759000Y-103551925D01*
X130790242Y-103394858D01*
X130851529Y-103246899D01*
X130940499Y-103113745D01*
X131053745Y-103000499D01*
X131186899Y-102911529D01*
X131334858Y-102850242D01*
X131491925Y-102819000D01*
X131652075Y-102819000D01*
X131809142Y-102850242D01*
X131809142Y-102850242D01*
G37*
G36*
X114029142Y-102850242D02*
G01*
X114177101Y-102911529D01*
X114310255Y-103000499D01*
X114423501Y-103113745D01*
X114512471Y-103246899D01*
X114573758Y-103394858D01*
X114605000Y-103551925D01*
X114605000Y-103712075D01*
X114573758Y-103869142D01*
X114512471Y-104017101D01*
X114423501Y-104150255D01*
X114310255Y-104263501D01*
X114177101Y-104352471D01*
X114029142Y-104413758D01*
X113872075Y-104445000D01*
X113711925Y-104445000D01*
X113554858Y-104413758D01*
X113406899Y-104352471D01*
X113273745Y-104263501D01*
X113160499Y-104150255D01*
X113071529Y-104017101D01*
X113010242Y-103869142D01*
X112979000Y-103712075D01*
X112979000Y-103551925D01*
X113010242Y-103394858D01*
X113071529Y-103246899D01*
X113160499Y-103113745D01*
X113273745Y-103000499D01*
X113406899Y-102911529D01*
X113554858Y-102850242D01*
X113711925Y-102819000D01*
X113872075Y-102819000D01*
X114029142Y-102850242D01*
X114029142Y-102850242D01*
G37*
G36*
X144509142Y-102850242D02*
G01*
X144657101Y-102911529D01*
X144790255Y-103000499D01*
X144903501Y-103113745D01*
X144992471Y-103246899D01*
X145053758Y-103394858D01*
X145085000Y-103551925D01*
X145085000Y-103712075D01*
X145053758Y-103869142D01*
X144992471Y-104017101D01*
X144903501Y-104150255D01*
X144790255Y-104263501D01*
X144657101Y-104352471D01*
X144509142Y-104413758D01*
X144352075Y-104445000D01*
X144191925Y-104445000D01*
X144034858Y-104413758D01*
X143886899Y-104352471D01*
X143753745Y-104263501D01*
X143640499Y-104150255D01*
X143551529Y-104017101D01*
X143490242Y-103869142D01*
X143459000Y-103712075D01*
X143459000Y-103551925D01*
X143490242Y-103394858D01*
X143551529Y-103246899D01*
X143640499Y-103113745D01*
X143753745Y-103000499D01*
X143886899Y-102911529D01*
X144034858Y-102850242D01*
X144191925Y-102819000D01*
X144352075Y-102819000D01*
X144509142Y-102850242D01*
X144509142Y-102850242D01*
G37*
G36*
X116569142Y-102850242D02*
G01*
X116717101Y-102911529D01*
X116850255Y-103000499D01*
X116963501Y-103113745D01*
X117052471Y-103246899D01*
X117113758Y-103394858D01*
X117145000Y-103551925D01*
X117145000Y-103712075D01*
X117113758Y-103869142D01*
X117052471Y-104017101D01*
X116963501Y-104150255D01*
X116850255Y-104263501D01*
X116717101Y-104352471D01*
X116569142Y-104413758D01*
X116412075Y-104445000D01*
X116251925Y-104445000D01*
X116094858Y-104413758D01*
X115946899Y-104352471D01*
X115813745Y-104263501D01*
X115700499Y-104150255D01*
X115611529Y-104017101D01*
X115550242Y-103869142D01*
X115519000Y-103712075D01*
X115519000Y-103551925D01*
X115550242Y-103394858D01*
X115611529Y-103246899D01*
X115700499Y-103113745D01*
X115813745Y-103000499D01*
X115946899Y-102911529D01*
X116094858Y-102850242D01*
X116251925Y-102819000D01*
X116412075Y-102819000D01*
X116569142Y-102850242D01*
X116569142Y-102850242D01*
G37*
G36*
X119109142Y-102850242D02*
G01*
X119257101Y-102911529D01*
X119390255Y-103000499D01*
X119503501Y-103113745D01*
X119592471Y-103246899D01*
X119653758Y-103394858D01*
X119685000Y-103551925D01*
X119685000Y-103712075D01*
X119653758Y-103869142D01*
X119592471Y-104017101D01*
X119503501Y-104150255D01*
X119390255Y-104263501D01*
X119257101Y-104352471D01*
X119109142Y-104413758D01*
X118952075Y-104445000D01*
X118791925Y-104445000D01*
X118634858Y-104413758D01*
X118486899Y-104352471D01*
X118353745Y-104263501D01*
X118240499Y-104150255D01*
X118151529Y-104017101D01*
X118090242Y-103869142D01*
X118059000Y-103712075D01*
X118059000Y-103551925D01*
X118090242Y-103394858D01*
X118151529Y-103246899D01*
X118240499Y-103113745D01*
X118353745Y-103000499D01*
X118486899Y-102911529D01*
X118634858Y-102850242D01*
X118791925Y-102819000D01*
X118952075Y-102819000D01*
X119109142Y-102850242D01*
X119109142Y-102850242D01*
G37*
G36*
X121649142Y-102850242D02*
G01*
X121797101Y-102911529D01*
X121930255Y-103000499D01*
X122043501Y-103113745D01*
X122132471Y-103246899D01*
X122193758Y-103394858D01*
X122225000Y-103551925D01*
X122225000Y-103712075D01*
X122193758Y-103869142D01*
X122132471Y-104017101D01*
X122043501Y-104150255D01*
X121930255Y-104263501D01*
X121797101Y-104352471D01*
X121649142Y-104413758D01*
X121492075Y-104445000D01*
X121331925Y-104445000D01*
X121174858Y-104413758D01*
X121026899Y-104352471D01*
X120893745Y-104263501D01*
X120780499Y-104150255D01*
X120691529Y-104017101D01*
X120630242Y-103869142D01*
X120599000Y-103712075D01*
X120599000Y-103551925D01*
X120630242Y-103394858D01*
X120691529Y-103246899D01*
X120780499Y-103113745D01*
X120893745Y-103000499D01*
X121026899Y-102911529D01*
X121174858Y-102850242D01*
X121331925Y-102819000D01*
X121492075Y-102819000D01*
X121649142Y-102850242D01*
X121649142Y-102850242D01*
G37*
G36*
X124189142Y-102850242D02*
G01*
X124337101Y-102911529D01*
X124470255Y-103000499D01*
X124583501Y-103113745D01*
X124672471Y-103246899D01*
X124733758Y-103394858D01*
X124765000Y-103551925D01*
X124765000Y-103712075D01*
X124733758Y-103869142D01*
X124672471Y-104017101D01*
X124583501Y-104150255D01*
X124470255Y-104263501D01*
X124337101Y-104352471D01*
X124189142Y-104413758D01*
X124032075Y-104445000D01*
X123871925Y-104445000D01*
X123714858Y-104413758D01*
X123566899Y-104352471D01*
X123433745Y-104263501D01*
X123320499Y-104150255D01*
X123231529Y-104017101D01*
X123170242Y-103869142D01*
X123139000Y-103712075D01*
X123139000Y-103551925D01*
X123170242Y-103394858D01*
X123231529Y-103246899D01*
X123320499Y-103113745D01*
X123433745Y-103000499D01*
X123566899Y-102911529D01*
X123714858Y-102850242D01*
X123871925Y-102819000D01*
X124032075Y-102819000D01*
X124189142Y-102850242D01*
X124189142Y-102850242D01*
G37*
G36*
X158363600Y-100448989D02*
G01*
X158396652Y-100459015D01*
X158427103Y-100475292D01*
X158453799Y-100497201D01*
X158475708Y-100523897D01*
X158491985Y-100554348D01*
X158502011Y-100587400D01*
X158506000Y-100627903D01*
X158506000Y-102064097D01*
X158502011Y-102104600D01*
X158491985Y-102137652D01*
X158475708Y-102168103D01*
X158453799Y-102194799D01*
X158427103Y-102216708D01*
X158396652Y-102232985D01*
X158363600Y-102243011D01*
X158323097Y-102247000D01*
X156636903Y-102247000D01*
X156596400Y-102243011D01*
X156563348Y-102232985D01*
X156532897Y-102216708D01*
X156506201Y-102194799D01*
X156484292Y-102168103D01*
X156468015Y-102137652D01*
X156457989Y-102104600D01*
X156454000Y-102064097D01*
X156454000Y-100627903D01*
X156457989Y-100587400D01*
X156468015Y-100554348D01*
X156484292Y-100523897D01*
X156506201Y-100497201D01*
X156532897Y-100475292D01*
X156563348Y-100459015D01*
X156596400Y-100448989D01*
X156636903Y-100445000D01*
X158323097Y-100445000D01*
X158363600Y-100448989D01*
X158363600Y-100448989D01*
G37*
G36*
X108695442Y-98927518D02*
G01*
X108761627Y-98934037D01*
X108931466Y-98985557D01*
X109087991Y-99069222D01*
X109123729Y-99098552D01*
X109225186Y-99181814D01*
X109308448Y-99283271D01*
X109337778Y-99319009D01*
X109421443Y-99475534D01*
X109472963Y-99645373D01*
X109490359Y-99822000D01*
X109472963Y-99998627D01*
X109421443Y-100168466D01*
X109337778Y-100324991D01*
X109308448Y-100360729D01*
X109225186Y-100462186D01*
X109123729Y-100545448D01*
X109087991Y-100574778D01*
X108931466Y-100658443D01*
X108761627Y-100709963D01*
X108695443Y-100716481D01*
X108629260Y-100723000D01*
X108540740Y-100723000D01*
X108474558Y-100716482D01*
X108408373Y-100709963D01*
X108238534Y-100658443D01*
X108082009Y-100574778D01*
X108046271Y-100545448D01*
X107944814Y-100462186D01*
X107861552Y-100360729D01*
X107832222Y-100324991D01*
X107748557Y-100168466D01*
X107697037Y-99998627D01*
X107679641Y-99822000D01*
X107697037Y-99645373D01*
X107748557Y-99475534D01*
X107832222Y-99319009D01*
X107861552Y-99283271D01*
X107944814Y-99181814D01*
X108046271Y-99098552D01*
X108082009Y-99069222D01*
X108238534Y-98985557D01*
X108408373Y-98934037D01*
X108474557Y-98927519D01*
X108540740Y-98921000D01*
X108629260Y-98921000D01*
X108695442Y-98927518D01*
X108695442Y-98927518D01*
G37*
G36*
X106155442Y-98927518D02*
G01*
X106221627Y-98934037D01*
X106391466Y-98985557D01*
X106547991Y-99069222D01*
X106583729Y-99098552D01*
X106685186Y-99181814D01*
X106768448Y-99283271D01*
X106797778Y-99319009D01*
X106881443Y-99475534D01*
X106932963Y-99645373D01*
X106950359Y-99822000D01*
X106932963Y-99998627D01*
X106881443Y-100168466D01*
X106797778Y-100324991D01*
X106768448Y-100360729D01*
X106685186Y-100462186D01*
X106583729Y-100545448D01*
X106547991Y-100574778D01*
X106391466Y-100658443D01*
X106221627Y-100709963D01*
X106155443Y-100716481D01*
X106089260Y-100723000D01*
X106000740Y-100723000D01*
X105934558Y-100716482D01*
X105868373Y-100709963D01*
X105698534Y-100658443D01*
X105542009Y-100574778D01*
X105506271Y-100545448D01*
X105404814Y-100462186D01*
X105321552Y-100360729D01*
X105292222Y-100324991D01*
X105208557Y-100168466D01*
X105157037Y-99998627D01*
X105139641Y-99822000D01*
X105157037Y-99645373D01*
X105208557Y-99475534D01*
X105292222Y-99319009D01*
X105321552Y-99283271D01*
X105404814Y-99181814D01*
X105506271Y-99098552D01*
X105542009Y-99069222D01*
X105698534Y-98985557D01*
X105868373Y-98934037D01*
X105934557Y-98927519D01*
X106000740Y-98921000D01*
X106089260Y-98921000D01*
X106155442Y-98927518D01*
X106155442Y-98927518D01*
G37*
G36*
X157715442Y-97951518D02*
G01*
X157781627Y-97958037D01*
X157951466Y-98009557D01*
X158107991Y-98093222D01*
X158138721Y-98118442D01*
X158245186Y-98205814D01*
X158328448Y-98307271D01*
X158357778Y-98343009D01*
X158441443Y-98499534D01*
X158492963Y-98669373D01*
X158510359Y-98846000D01*
X158492963Y-99022627D01*
X158441443Y-99192466D01*
X158357778Y-99348991D01*
X158328448Y-99384729D01*
X158245186Y-99486186D01*
X158143729Y-99569448D01*
X158107991Y-99598778D01*
X157951466Y-99682443D01*
X157781627Y-99733963D01*
X157715443Y-99740481D01*
X157649260Y-99747000D01*
X157310740Y-99747000D01*
X157244557Y-99740481D01*
X157178373Y-99733963D01*
X157008534Y-99682443D01*
X156852009Y-99598778D01*
X156816271Y-99569448D01*
X156714814Y-99486186D01*
X156631552Y-99384729D01*
X156602222Y-99348991D01*
X156518557Y-99192466D01*
X156467037Y-99022627D01*
X156449641Y-98846000D01*
X156467037Y-98669373D01*
X156518557Y-98499534D01*
X156602222Y-98343009D01*
X156631552Y-98307271D01*
X156714814Y-98205814D01*
X156821279Y-98118442D01*
X156852009Y-98093222D01*
X157008534Y-98009557D01*
X157178373Y-97958037D01*
X157244557Y-97951519D01*
X157310740Y-97945000D01*
X157649260Y-97945000D01*
X157715442Y-97951518D01*
X157715442Y-97951518D01*
G37*
G36*
X108695442Y-96387518D02*
G01*
X108761627Y-96394037D01*
X108931466Y-96445557D01*
X109087991Y-96529222D01*
X109123729Y-96558552D01*
X109225186Y-96641814D01*
X109308448Y-96743271D01*
X109337778Y-96779009D01*
X109421443Y-96935534D01*
X109472963Y-97105373D01*
X109490359Y-97282000D01*
X109472963Y-97458627D01*
X109421443Y-97628466D01*
X109337778Y-97784991D01*
X109308448Y-97820729D01*
X109225186Y-97922186D01*
X109123729Y-98005448D01*
X109087991Y-98034778D01*
X108931466Y-98118443D01*
X108761627Y-98169963D01*
X108695442Y-98176482D01*
X108629260Y-98183000D01*
X108540740Y-98183000D01*
X108474557Y-98176481D01*
X108408373Y-98169963D01*
X108238534Y-98118443D01*
X108082009Y-98034778D01*
X108046271Y-98005448D01*
X107944814Y-97922186D01*
X107861552Y-97820729D01*
X107832222Y-97784991D01*
X107748557Y-97628466D01*
X107697037Y-97458627D01*
X107679641Y-97282000D01*
X107697037Y-97105373D01*
X107748557Y-96935534D01*
X107832222Y-96779009D01*
X107861552Y-96743271D01*
X107944814Y-96641814D01*
X108046271Y-96558552D01*
X108082009Y-96529222D01*
X108238534Y-96445557D01*
X108408373Y-96394037D01*
X108474558Y-96387518D01*
X108540740Y-96381000D01*
X108629260Y-96381000D01*
X108695442Y-96387518D01*
X108695442Y-96387518D01*
G37*
G36*
X106946000Y-98183000D02*
G01*
X105144000Y-98183000D01*
X105144000Y-96381000D01*
X106946000Y-96381000D01*
X106946000Y-98183000D01*
X106946000Y-98183000D01*
G37*
G36*
X157715442Y-95451518D02*
G01*
X157781627Y-95458037D01*
X157951466Y-95509557D01*
X158107991Y-95593222D01*
X158143729Y-95622552D01*
X158245186Y-95705814D01*
X158328448Y-95807271D01*
X158357778Y-95843009D01*
X158441443Y-95999534D01*
X158492963Y-96169373D01*
X158510359Y-96346000D01*
X158492963Y-96522627D01*
X158441443Y-96692466D01*
X158357778Y-96848991D01*
X158328448Y-96884729D01*
X158245186Y-96986186D01*
X158143729Y-97069448D01*
X158107991Y-97098778D01*
X157951466Y-97182443D01*
X157781627Y-97233963D01*
X157715443Y-97240481D01*
X157649260Y-97247000D01*
X157310740Y-97247000D01*
X157244557Y-97240481D01*
X157178373Y-97233963D01*
X157008534Y-97182443D01*
X156852009Y-97098778D01*
X156816271Y-97069448D01*
X156714814Y-96986186D01*
X156631552Y-96884729D01*
X156602222Y-96848991D01*
X156518557Y-96692466D01*
X156467037Y-96522627D01*
X156449641Y-96346000D01*
X156467037Y-96169373D01*
X156518557Y-95999534D01*
X156602222Y-95843009D01*
X156631552Y-95807271D01*
X156714814Y-95705814D01*
X156816271Y-95622552D01*
X156852009Y-95593222D01*
X157008534Y-95509557D01*
X157178373Y-95458037D01*
X157244557Y-95451519D01*
X157310740Y-95445000D01*
X157649260Y-95445000D01*
X157715442Y-95451518D01*
X157715442Y-95451518D01*
G37*
G36*
X157715443Y-92951519D02*
G01*
X157781627Y-92958037D01*
X157951466Y-93009557D01*
X158107991Y-93093222D01*
X158143729Y-93122552D01*
X158245186Y-93205814D01*
X158328448Y-93307271D01*
X158357778Y-93343009D01*
X158441443Y-93499534D01*
X158492963Y-93669373D01*
X158510359Y-93846000D01*
X158492963Y-94022627D01*
X158441443Y-94192466D01*
X158357778Y-94348991D01*
X158328448Y-94384729D01*
X158245186Y-94486186D01*
X158143729Y-94569448D01*
X158107991Y-94598778D01*
X157951466Y-94682443D01*
X157781627Y-94733963D01*
X157715443Y-94740481D01*
X157649260Y-94747000D01*
X157310740Y-94747000D01*
X157244557Y-94740481D01*
X157178373Y-94733963D01*
X157008534Y-94682443D01*
X156852009Y-94598778D01*
X156816271Y-94569448D01*
X156714814Y-94486186D01*
X156631552Y-94384729D01*
X156602222Y-94348991D01*
X156518557Y-94192466D01*
X156467037Y-94022627D01*
X156449641Y-93846000D01*
X156467037Y-93669373D01*
X156518557Y-93499534D01*
X156602222Y-93343009D01*
X156631552Y-93307271D01*
X156714814Y-93205814D01*
X156816271Y-93122552D01*
X156852009Y-93093222D01*
X157008534Y-93009557D01*
X157178373Y-92958037D01*
X157244557Y-92951519D01*
X157310740Y-92945000D01*
X157649260Y-92945000D01*
X157715443Y-92951519D01*
X157715443Y-92951519D01*
G37*
G36*
X158363600Y-87668989D02*
G01*
X158396652Y-87679015D01*
X158427103Y-87695292D01*
X158453799Y-87717201D01*
X158475708Y-87743897D01*
X158491985Y-87774348D01*
X158502011Y-87807400D01*
X158506000Y-87847903D01*
X158506000Y-89284097D01*
X158502011Y-89324600D01*
X158491985Y-89357652D01*
X158475708Y-89388103D01*
X158453799Y-89414799D01*
X158427103Y-89436708D01*
X158396652Y-89452985D01*
X158363600Y-89463011D01*
X158323097Y-89467000D01*
X156636903Y-89467000D01*
X156596400Y-89463011D01*
X156563348Y-89452985D01*
X156532897Y-89436708D01*
X156506201Y-89414799D01*
X156484292Y-89388103D01*
X156468015Y-89357652D01*
X156457989Y-89324600D01*
X156454000Y-89284097D01*
X156454000Y-87847903D01*
X156457989Y-87807400D01*
X156468015Y-87774348D01*
X156484292Y-87743897D01*
X156506201Y-87717201D01*
X156532897Y-87695292D01*
X156563348Y-87679015D01*
X156596400Y-87668989D01*
X156636903Y-87665000D01*
X158323097Y-87665000D01*
X158363600Y-87668989D01*
X158363600Y-87668989D01*
G37*
G36*
X157715442Y-85171518D02*
G01*
X157781627Y-85178037D01*
X157951466Y-85229557D01*
X158107991Y-85313222D01*
X158143729Y-85342552D01*
X158245186Y-85425814D01*
X158328448Y-85527271D01*
X158357778Y-85563009D01*
X158441443Y-85719534D01*
X158492963Y-85889373D01*
X158510359Y-86066000D01*
X158492963Y-86242627D01*
X158441443Y-86412466D01*
X158357778Y-86568991D01*
X158328448Y-86604729D01*
X158245186Y-86706186D01*
X158143729Y-86789448D01*
X158107991Y-86818778D01*
X157951466Y-86902443D01*
X157781627Y-86953963D01*
X157715443Y-86960481D01*
X157649260Y-86967000D01*
X157310740Y-86967000D01*
X157244557Y-86960481D01*
X157178373Y-86953963D01*
X157008534Y-86902443D01*
X156852009Y-86818778D01*
X156816271Y-86789448D01*
X156714814Y-86706186D01*
X156631552Y-86604729D01*
X156602222Y-86568991D01*
X156518557Y-86412466D01*
X156467037Y-86242627D01*
X156449641Y-86066000D01*
X156467037Y-85889373D01*
X156518557Y-85719534D01*
X156602222Y-85563009D01*
X156631552Y-85527271D01*
X156714814Y-85425814D01*
X156816271Y-85342552D01*
X156852009Y-85313222D01*
X157008534Y-85229557D01*
X157178373Y-85178037D01*
X157244558Y-85171518D01*
X157310740Y-85165000D01*
X157649260Y-85165000D01*
X157715442Y-85171518D01*
X157715442Y-85171518D01*
G37*
G36*
X134360228Y-82874703D02*
G01*
X134515100Y-82938853D01*
X134654481Y-83031985D01*
X134773015Y-83150519D01*
X134866147Y-83289900D01*
X134930297Y-83444772D01*
X134963000Y-83609184D01*
X134963000Y-83776816D01*
X134930297Y-83941228D01*
X134866147Y-84096100D01*
X134773015Y-84235481D01*
X134654481Y-84354015D01*
X134515100Y-84447147D01*
X134360228Y-84511297D01*
X134195816Y-84544000D01*
X134028184Y-84544000D01*
X133863772Y-84511297D01*
X133708900Y-84447147D01*
X133569519Y-84354015D01*
X133450985Y-84235481D01*
X133357853Y-84096100D01*
X133293703Y-83941228D01*
X133261000Y-83776816D01*
X133261000Y-83609184D01*
X133293703Y-83444772D01*
X133357853Y-83289900D01*
X133450985Y-83150519D01*
X133569519Y-83031985D01*
X133708900Y-82938853D01*
X133863772Y-82874703D01*
X134028184Y-82842000D01*
X134195816Y-82842000D01*
X134360228Y-82874703D01*
X134360228Y-82874703D01*
G37*
G36*
X119038823Y-82854313D02*
G01*
X119199242Y-82902976D01*
X119266361Y-82938852D01*
X119347078Y-82981996D01*
X119476659Y-83088341D01*
X119583004Y-83217922D01*
X119583866Y-83219534D01*
X119662024Y-83365758D01*
X119710687Y-83526177D01*
X119727117Y-83693000D01*
X119710687Y-83859823D01*
X119662024Y-84020242D01*
X119621477Y-84096100D01*
X119583004Y-84168078D01*
X119476659Y-84297659D01*
X119347078Y-84404004D01*
X119347076Y-84404005D01*
X119199242Y-84483024D01*
X119038823Y-84531687D01*
X118913804Y-84544000D01*
X118830196Y-84544000D01*
X118705177Y-84531687D01*
X118544758Y-84483024D01*
X118396924Y-84404005D01*
X118396922Y-84404004D01*
X118267341Y-84297659D01*
X118160996Y-84168078D01*
X118122523Y-84096100D01*
X118081976Y-84020242D01*
X118033313Y-83859823D01*
X118016883Y-83693000D01*
X118033313Y-83526177D01*
X118081976Y-83365758D01*
X118160134Y-83219534D01*
X118160996Y-83217922D01*
X118267341Y-83088341D01*
X118396922Y-82981996D01*
X118477639Y-82938852D01*
X118544758Y-82902976D01*
X118705177Y-82854313D01*
X118830196Y-82842000D01*
X118913804Y-82842000D01*
X119038823Y-82854313D01*
X119038823Y-82854313D01*
G37*
G36*
X157715442Y-82671518D02*
G01*
X157781627Y-82678037D01*
X157951466Y-82729557D01*
X158107991Y-82813222D01*
X158143057Y-82842000D01*
X158245186Y-82925814D01*
X158328448Y-83027271D01*
X158357778Y-83063009D01*
X158441443Y-83219534D01*
X158492963Y-83389373D01*
X158510359Y-83566000D01*
X158492963Y-83742627D01*
X158441443Y-83912466D01*
X158357778Y-84068991D01*
X158335530Y-84096100D01*
X158245186Y-84206186D01*
X158143729Y-84289448D01*
X158107991Y-84318778D01*
X157951466Y-84402443D01*
X157781627Y-84453963D01*
X157715443Y-84460481D01*
X157649260Y-84467000D01*
X157310740Y-84467000D01*
X157244557Y-84460481D01*
X157178373Y-84453963D01*
X157008534Y-84402443D01*
X156852009Y-84318778D01*
X156816271Y-84289448D01*
X156714814Y-84206186D01*
X156624470Y-84096100D01*
X156602222Y-84068991D01*
X156518557Y-83912466D01*
X156467037Y-83742627D01*
X156449641Y-83566000D01*
X156467037Y-83389373D01*
X156518557Y-83219534D01*
X156602222Y-83063009D01*
X156631552Y-83027271D01*
X156714814Y-82925814D01*
X156816943Y-82842000D01*
X156852009Y-82813222D01*
X157008534Y-82729557D01*
X157178373Y-82678037D01*
X157244558Y-82671518D01*
X157310740Y-82665000D01*
X157649260Y-82665000D01*
X157715442Y-82671518D01*
X157715442Y-82671518D01*
G37*
G36*
X111489142Y-77450242D02*
G01*
X111637101Y-77511529D01*
X111770255Y-77600499D01*
X111883501Y-77713745D01*
X111972471Y-77846899D01*
X112033758Y-77994858D01*
X112065000Y-78151925D01*
X112065000Y-78312075D01*
X112033758Y-78469142D01*
X111972471Y-78617101D01*
X111883501Y-78750255D01*
X111770255Y-78863501D01*
X111637101Y-78952471D01*
X111489142Y-79013758D01*
X111332075Y-79045000D01*
X111171925Y-79045000D01*
X111014858Y-79013758D01*
X110866899Y-78952471D01*
X110733745Y-78863501D01*
X110620499Y-78750255D01*
X110531529Y-78617101D01*
X110470242Y-78469142D01*
X110439000Y-78312075D01*
X110439000Y-78151925D01*
X110470242Y-77994858D01*
X110531529Y-77846899D01*
X110620499Y-77713745D01*
X110733745Y-77600499D01*
X110866899Y-77511529D01*
X111014858Y-77450242D01*
X111171925Y-77419000D01*
X111332075Y-77419000D01*
X111489142Y-77450242D01*
X111489142Y-77450242D01*
G37*
G36*
X134349142Y-77450242D02*
G01*
X134497101Y-77511529D01*
X134630255Y-77600499D01*
X134743501Y-77713745D01*
X134832471Y-77846899D01*
X134893758Y-77994858D01*
X134925000Y-78151925D01*
X134925000Y-78312075D01*
X134893758Y-78469142D01*
X134832471Y-78617101D01*
X134743501Y-78750255D01*
X134630255Y-78863501D01*
X134497101Y-78952471D01*
X134349142Y-79013758D01*
X134192075Y-79045000D01*
X134031925Y-79045000D01*
X133874858Y-79013758D01*
X133726899Y-78952471D01*
X133593745Y-78863501D01*
X133480499Y-78750255D01*
X133391529Y-78617101D01*
X133330242Y-78469142D01*
X133299000Y-78312075D01*
X133299000Y-78151925D01*
X133330242Y-77994858D01*
X133391529Y-77846899D01*
X133480499Y-77713745D01*
X133593745Y-77600499D01*
X133726899Y-77511529D01*
X133874858Y-77450242D01*
X134031925Y-77419000D01*
X134192075Y-77419000D01*
X134349142Y-77450242D01*
X134349142Y-77450242D01*
G37*
G36*
X131809142Y-77450242D02*
G01*
X131957101Y-77511529D01*
X132090255Y-77600499D01*
X132203501Y-77713745D01*
X132292471Y-77846899D01*
X132353758Y-77994858D01*
X132385000Y-78151925D01*
X132385000Y-78312075D01*
X132353758Y-78469142D01*
X132292471Y-78617101D01*
X132203501Y-78750255D01*
X132090255Y-78863501D01*
X131957101Y-78952471D01*
X131809142Y-79013758D01*
X131652075Y-79045000D01*
X131491925Y-79045000D01*
X131334858Y-79013758D01*
X131186899Y-78952471D01*
X131053745Y-78863501D01*
X130940499Y-78750255D01*
X130851529Y-78617101D01*
X130790242Y-78469142D01*
X130759000Y-78312075D01*
X130759000Y-78151925D01*
X130790242Y-77994858D01*
X130851529Y-77846899D01*
X130940499Y-77713745D01*
X131053745Y-77600499D01*
X131186899Y-77511529D01*
X131334858Y-77450242D01*
X131491925Y-77419000D01*
X131652075Y-77419000D01*
X131809142Y-77450242D01*
X131809142Y-77450242D01*
G37*
G36*
X129269142Y-77450242D02*
G01*
X129417101Y-77511529D01*
X129550255Y-77600499D01*
X129663501Y-77713745D01*
X129752471Y-77846899D01*
X129813758Y-77994858D01*
X129845000Y-78151925D01*
X129845000Y-78312075D01*
X129813758Y-78469142D01*
X129752471Y-78617101D01*
X129663501Y-78750255D01*
X129550255Y-78863501D01*
X129417101Y-78952471D01*
X129269142Y-79013758D01*
X129112075Y-79045000D01*
X128951925Y-79045000D01*
X128794858Y-79013758D01*
X128646899Y-78952471D01*
X128513745Y-78863501D01*
X128400499Y-78750255D01*
X128311529Y-78617101D01*
X128250242Y-78469142D01*
X128219000Y-78312075D01*
X128219000Y-78151925D01*
X128250242Y-77994858D01*
X128311529Y-77846899D01*
X128400499Y-77713745D01*
X128513745Y-77600499D01*
X128646899Y-77511529D01*
X128794858Y-77450242D01*
X128951925Y-77419000D01*
X129112075Y-77419000D01*
X129269142Y-77450242D01*
X129269142Y-77450242D01*
G37*
G36*
X126729142Y-77450242D02*
G01*
X126877101Y-77511529D01*
X127010255Y-77600499D01*
X127123501Y-77713745D01*
X127212471Y-77846899D01*
X127273758Y-77994858D01*
X127305000Y-78151925D01*
X127305000Y-78312075D01*
X127273758Y-78469142D01*
X127212471Y-78617101D01*
X127123501Y-78750255D01*
X127010255Y-78863501D01*
X126877101Y-78952471D01*
X126729142Y-79013758D01*
X126572075Y-79045000D01*
X126411925Y-79045000D01*
X126254858Y-79013758D01*
X126106899Y-78952471D01*
X125973745Y-78863501D01*
X125860499Y-78750255D01*
X125771529Y-78617101D01*
X125710242Y-78469142D01*
X125679000Y-78312075D01*
X125679000Y-78151925D01*
X125710242Y-77994858D01*
X125771529Y-77846899D01*
X125860499Y-77713745D01*
X125973745Y-77600499D01*
X126106899Y-77511529D01*
X126254858Y-77450242D01*
X126411925Y-77419000D01*
X126572075Y-77419000D01*
X126729142Y-77450242D01*
X126729142Y-77450242D01*
G37*
G36*
X121649142Y-77450242D02*
G01*
X121797101Y-77511529D01*
X121930255Y-77600499D01*
X122043501Y-77713745D01*
X122132471Y-77846899D01*
X122193758Y-77994858D01*
X122225000Y-78151925D01*
X122225000Y-78312075D01*
X122193758Y-78469142D01*
X122132471Y-78617101D01*
X122043501Y-78750255D01*
X121930255Y-78863501D01*
X121797101Y-78952471D01*
X121649142Y-79013758D01*
X121492075Y-79045000D01*
X121331925Y-79045000D01*
X121174858Y-79013758D01*
X121026899Y-78952471D01*
X120893745Y-78863501D01*
X120780499Y-78750255D01*
X120691529Y-78617101D01*
X120630242Y-78469142D01*
X120599000Y-78312075D01*
X120599000Y-78151925D01*
X120630242Y-77994858D01*
X120691529Y-77846899D01*
X120780499Y-77713745D01*
X120893745Y-77600499D01*
X121026899Y-77511529D01*
X121174858Y-77450242D01*
X121331925Y-77419000D01*
X121492075Y-77419000D01*
X121649142Y-77450242D01*
X121649142Y-77450242D01*
G37*
G36*
X119109142Y-77450242D02*
G01*
X119257101Y-77511529D01*
X119390255Y-77600499D01*
X119503501Y-77713745D01*
X119592471Y-77846899D01*
X119653758Y-77994858D01*
X119685000Y-78151925D01*
X119685000Y-78312075D01*
X119653758Y-78469142D01*
X119592471Y-78617101D01*
X119503501Y-78750255D01*
X119390255Y-78863501D01*
X119257101Y-78952471D01*
X119109142Y-79013758D01*
X118952075Y-79045000D01*
X118791925Y-79045000D01*
X118634858Y-79013758D01*
X118486899Y-78952471D01*
X118353745Y-78863501D01*
X118240499Y-78750255D01*
X118151529Y-78617101D01*
X118090242Y-78469142D01*
X118059000Y-78312075D01*
X118059000Y-78151925D01*
X118090242Y-77994858D01*
X118151529Y-77846899D01*
X118240499Y-77713745D01*
X118353745Y-77600499D01*
X118486899Y-77511529D01*
X118634858Y-77450242D01*
X118791925Y-77419000D01*
X118952075Y-77419000D01*
X119109142Y-77450242D01*
X119109142Y-77450242D01*
G37*
G36*
X116569142Y-77450242D02*
G01*
X116717101Y-77511529D01*
X116850255Y-77600499D01*
X116963501Y-77713745D01*
X117052471Y-77846899D01*
X117113758Y-77994858D01*
X117145000Y-78151925D01*
X117145000Y-78312075D01*
X117113758Y-78469142D01*
X117052471Y-78617101D01*
X116963501Y-78750255D01*
X116850255Y-78863501D01*
X116717101Y-78952471D01*
X116569142Y-79013758D01*
X116412075Y-79045000D01*
X116251925Y-79045000D01*
X116094858Y-79013758D01*
X115946899Y-78952471D01*
X115813745Y-78863501D01*
X115700499Y-78750255D01*
X115611529Y-78617101D01*
X115550242Y-78469142D01*
X115519000Y-78312075D01*
X115519000Y-78151925D01*
X115550242Y-77994858D01*
X115611529Y-77846899D01*
X115700499Y-77713745D01*
X115813745Y-77600499D01*
X115946899Y-77511529D01*
X116094858Y-77450242D01*
X116251925Y-77419000D01*
X116412075Y-77419000D01*
X116569142Y-77450242D01*
X116569142Y-77450242D01*
G37*
G36*
X114029142Y-77450242D02*
G01*
X114177101Y-77511529D01*
X114310255Y-77600499D01*
X114423501Y-77713745D01*
X114512471Y-77846899D01*
X114573758Y-77994858D01*
X114605000Y-78151925D01*
X114605000Y-78312075D01*
X114573758Y-78469142D01*
X114512471Y-78617101D01*
X114423501Y-78750255D01*
X114310255Y-78863501D01*
X114177101Y-78952471D01*
X114029142Y-79013758D01*
X113872075Y-79045000D01*
X113711925Y-79045000D01*
X113554858Y-79013758D01*
X113406899Y-78952471D01*
X113273745Y-78863501D01*
X113160499Y-78750255D01*
X113071529Y-78617101D01*
X113010242Y-78469142D01*
X112979000Y-78312075D01*
X112979000Y-78151925D01*
X113010242Y-77994858D01*
X113071529Y-77846899D01*
X113160499Y-77713745D01*
X113273745Y-77600499D01*
X113406899Y-77511529D01*
X113554858Y-77450242D01*
X113711925Y-77419000D01*
X113872075Y-77419000D01*
X114029142Y-77450242D01*
X114029142Y-77450242D01*
G37*
G36*
X108949142Y-77450242D02*
G01*
X109097101Y-77511529D01*
X109230255Y-77600499D01*
X109343501Y-77713745D01*
X109432471Y-77846899D01*
X109493758Y-77994858D01*
X109525000Y-78151925D01*
X109525000Y-78312075D01*
X109493758Y-78469142D01*
X109432471Y-78617101D01*
X109343501Y-78750255D01*
X109230255Y-78863501D01*
X109097101Y-78952471D01*
X108949142Y-79013758D01*
X108792075Y-79045000D01*
X108631925Y-79045000D01*
X108474858Y-79013758D01*
X108326899Y-78952471D01*
X108193745Y-78863501D01*
X108080499Y-78750255D01*
X107991529Y-78617101D01*
X107930242Y-78469142D01*
X107899000Y-78312075D01*
X107899000Y-78151925D01*
X107930242Y-77994858D01*
X107991529Y-77846899D01*
X108080499Y-77713745D01*
X108193745Y-77600499D01*
X108326899Y-77511529D01*
X108474858Y-77450242D01*
X108631925Y-77419000D01*
X108792075Y-77419000D01*
X108949142Y-77450242D01*
X108949142Y-77450242D01*
G37*
G36*
X136889142Y-77450242D02*
G01*
X137037101Y-77511529D01*
X137170255Y-77600499D01*
X137283501Y-77713745D01*
X137372471Y-77846899D01*
X137433758Y-77994858D01*
X137465000Y-78151925D01*
X137465000Y-78312075D01*
X137433758Y-78469142D01*
X137372471Y-78617101D01*
X137283501Y-78750255D01*
X137170255Y-78863501D01*
X137037101Y-78952471D01*
X136889142Y-79013758D01*
X136732075Y-79045000D01*
X136571925Y-79045000D01*
X136414858Y-79013758D01*
X136266899Y-78952471D01*
X136133745Y-78863501D01*
X136020499Y-78750255D01*
X135931529Y-78617101D01*
X135870242Y-78469142D01*
X135839000Y-78312075D01*
X135839000Y-78151925D01*
X135870242Y-77994858D01*
X135931529Y-77846899D01*
X136020499Y-77713745D01*
X136133745Y-77600499D01*
X136266899Y-77511529D01*
X136414858Y-77450242D01*
X136571925Y-77419000D01*
X136732075Y-77419000D01*
X136889142Y-77450242D01*
X136889142Y-77450242D01*
G37*
G36*
X139429142Y-77450242D02*
G01*
X139577101Y-77511529D01*
X139710255Y-77600499D01*
X139823501Y-77713745D01*
X139912471Y-77846899D01*
X139973758Y-77994858D01*
X140005000Y-78151925D01*
X140005000Y-78312075D01*
X139973758Y-78469142D01*
X139912471Y-78617101D01*
X139823501Y-78750255D01*
X139710255Y-78863501D01*
X139577101Y-78952471D01*
X139429142Y-79013758D01*
X139272075Y-79045000D01*
X139111925Y-79045000D01*
X138954858Y-79013758D01*
X138806899Y-78952471D01*
X138673745Y-78863501D01*
X138560499Y-78750255D01*
X138471529Y-78617101D01*
X138410242Y-78469142D01*
X138379000Y-78312075D01*
X138379000Y-78151925D01*
X138410242Y-77994858D01*
X138471529Y-77846899D01*
X138560499Y-77713745D01*
X138673745Y-77600499D01*
X138806899Y-77511529D01*
X138954858Y-77450242D01*
X139111925Y-77419000D01*
X139272075Y-77419000D01*
X139429142Y-77450242D01*
X139429142Y-77450242D01*
G37*
G36*
X141969142Y-77450242D02*
G01*
X142117101Y-77511529D01*
X142250255Y-77600499D01*
X142363501Y-77713745D01*
X142452471Y-77846899D01*
X142513758Y-77994858D01*
X142545000Y-78151925D01*
X142545000Y-78312075D01*
X142513758Y-78469142D01*
X142452471Y-78617101D01*
X142363501Y-78750255D01*
X142250255Y-78863501D01*
X142117101Y-78952471D01*
X141969142Y-79013758D01*
X141812075Y-79045000D01*
X141651925Y-79045000D01*
X141494858Y-79013758D01*
X141346899Y-78952471D01*
X141213745Y-78863501D01*
X141100499Y-78750255D01*
X141011529Y-78617101D01*
X140950242Y-78469142D01*
X140919000Y-78312075D01*
X140919000Y-78151925D01*
X140950242Y-77994858D01*
X141011529Y-77846899D01*
X141100499Y-77713745D01*
X141213745Y-77600499D01*
X141346899Y-77511529D01*
X141494858Y-77450242D01*
X141651925Y-77419000D01*
X141812075Y-77419000D01*
X141969142Y-77450242D01*
X141969142Y-77450242D01*
G37*
G36*
X145085000Y-79045000D02*
G01*
X143459000Y-79045000D01*
X143459000Y-77419000D01*
X145085000Y-77419000D01*
X145085000Y-79045000D01*
X145085000Y-79045000D01*
G37*
G36*
X124189142Y-77450242D02*
G01*
X124337101Y-77511529D01*
X124470255Y-77600499D01*
X124583501Y-77713745D01*
X124672471Y-77846899D01*
X124733758Y-77994858D01*
X124765000Y-78151925D01*
X124765000Y-78312075D01*
X124733758Y-78469142D01*
X124672471Y-78617101D01*
X124583501Y-78750255D01*
X124470255Y-78863501D01*
X124337101Y-78952471D01*
X124189142Y-79013758D01*
X124032075Y-79045000D01*
X123871925Y-79045000D01*
X123714858Y-79013758D01*
X123566899Y-78952471D01*
X123433745Y-78863501D01*
X123320499Y-78750255D01*
X123231529Y-78617101D01*
X123170242Y-78469142D01*
X123139000Y-78312075D01*
X123139000Y-78151925D01*
X123170242Y-77994858D01*
X123231529Y-77846899D01*
X123320499Y-77713745D01*
X123433745Y-77600499D01*
X123566899Y-77511529D01*
X123714858Y-77450242D01*
X123871925Y-77419000D01*
X124032075Y-77419000D01*
X124189142Y-77450242D01*
X124189142Y-77450242D01*
G37*
M02*
