G04 #@! TF.GenerationSoftware,KiCad,Pcbnew,(5.1.2)-2*
G04 #@! TF.CreationDate,2022-01-26T05:10:27+01:00*
G04 #@! TF.ProjectId,SMuFF-Ifc2-ESP32,534d7546-462d-4496-9663-322d45535033,rev?*
G04 #@! TF.SameCoordinates,Original*
G04 #@! TF.FileFunction,Legend,Top*
G04 #@! TF.FilePolarity,Positive*
%FSLAX46Y46*%
G04 Gerber Fmt 4.6, Leading zero omitted, Abs format (unit mm)*
G04 Created by KiCad (PCBNEW (5.1.2)-2) date 2022-01-26 05:10:27*
%MOMM*%
%LPD*%
G04 APERTURE LIST*
%ADD10C,0.150000*%
%ADD11C,0.250000*%
%ADD12C,0.120000*%
%ADD13C,0.200000*%
%ADD14C,0.010000*%
G04 APERTURE END LIST*
D10*
X120087523Y-92400476D02*
X119992285Y-92352857D01*
X119801809Y-92352857D01*
X119706571Y-92400476D01*
X119611333Y-92495714D01*
X119563714Y-92590952D01*
X119563714Y-92781428D01*
X119611333Y-92876666D01*
X119706571Y-92971904D01*
X119801809Y-93019523D01*
X119992285Y-93019523D01*
X120087523Y-92971904D01*
X119897047Y-92019523D02*
X119658952Y-92067142D01*
X119420857Y-92210000D01*
X119278000Y-92448095D01*
X119230380Y-92686190D01*
X119278000Y-92924285D01*
X119420857Y-93162380D01*
X119658952Y-93305238D01*
X119897047Y-93352857D01*
X120135142Y-93305238D01*
X120373238Y-93162380D01*
X120516095Y-92924285D01*
X120563714Y-92686190D01*
X120516095Y-92448095D01*
X120373238Y-92210000D01*
X120135142Y-92067142D01*
X119897047Y-92019523D01*
X121706571Y-92257619D02*
X121754190Y-92210000D01*
X121849428Y-92162380D01*
X122087523Y-92162380D01*
X122182761Y-92210000D01*
X122230380Y-92257619D01*
X122278000Y-92352857D01*
X122278000Y-92448095D01*
X122230380Y-92590952D01*
X121658952Y-93162380D01*
X122278000Y-93162380D01*
X122897047Y-92162380D02*
X122992285Y-92162380D01*
X123087523Y-92210000D01*
X123135142Y-92257619D01*
X123182761Y-92352857D01*
X123230380Y-92543333D01*
X123230380Y-92781428D01*
X123182761Y-92971904D01*
X123135142Y-93067142D01*
X123087523Y-93114761D01*
X122992285Y-93162380D01*
X122897047Y-93162380D01*
X122801809Y-93114761D01*
X122754190Y-93067142D01*
X122706571Y-92971904D01*
X122658952Y-92781428D01*
X122658952Y-92543333D01*
X122706571Y-92352857D01*
X122754190Y-92257619D01*
X122801809Y-92210000D01*
X122897047Y-92162380D01*
X123611333Y-92257619D02*
X123658952Y-92210000D01*
X123754190Y-92162380D01*
X123992285Y-92162380D01*
X124087523Y-92210000D01*
X124135142Y-92257619D01*
X124182761Y-92352857D01*
X124182761Y-92448095D01*
X124135142Y-92590952D01*
X123563714Y-93162380D01*
X124182761Y-93162380D01*
X124563714Y-92257619D02*
X124611333Y-92210000D01*
X124706571Y-92162380D01*
X124944666Y-92162380D01*
X125039904Y-92210000D01*
X125087523Y-92257619D01*
X125135142Y-92352857D01*
X125135142Y-92448095D01*
X125087523Y-92590952D01*
X124516095Y-93162380D01*
X125135142Y-93162380D01*
X126325619Y-93162380D02*
X126325619Y-92162380D01*
X126325619Y-92543333D02*
X126420857Y-92495714D01*
X126611333Y-92495714D01*
X126706571Y-92543333D01*
X126754190Y-92590952D01*
X126801809Y-92686190D01*
X126801809Y-92971904D01*
X126754190Y-93067142D01*
X126706571Y-93114761D01*
X126611333Y-93162380D01*
X126420857Y-93162380D01*
X126325619Y-93114761D01*
X127135142Y-92495714D02*
X127373238Y-93162380D01*
X127611333Y-92495714D02*
X127373238Y-93162380D01*
X127278000Y-93400476D01*
X127230380Y-93448095D01*
X127135142Y-93495714D01*
X128611333Y-92162380D02*
X129182761Y-92162380D01*
X128897047Y-93162380D02*
X128897047Y-92162380D01*
X129897047Y-93114761D02*
X129801809Y-93162380D01*
X129611333Y-93162380D01*
X129516095Y-93114761D01*
X129468476Y-93019523D01*
X129468476Y-92638571D01*
X129516095Y-92543333D01*
X129611333Y-92495714D01*
X129801809Y-92495714D01*
X129897047Y-92543333D01*
X129944666Y-92638571D01*
X129944666Y-92733809D01*
X129468476Y-92829047D01*
X130801809Y-93114761D02*
X130706571Y-93162380D01*
X130516095Y-93162380D01*
X130420857Y-93114761D01*
X130373238Y-93067142D01*
X130325619Y-92971904D01*
X130325619Y-92686190D01*
X130373238Y-92590952D01*
X130420857Y-92543333D01*
X130516095Y-92495714D01*
X130706571Y-92495714D01*
X130801809Y-92543333D01*
X131230380Y-93162380D02*
X131230380Y-92162380D01*
X131658952Y-93162380D02*
X131658952Y-92638571D01*
X131611333Y-92543333D01*
X131516095Y-92495714D01*
X131373238Y-92495714D01*
X131278000Y-92543333D01*
X131230380Y-92590952D01*
X132135142Y-92495714D02*
X132135142Y-93162380D01*
X132135142Y-92590952D02*
X132182761Y-92543333D01*
X132278000Y-92495714D01*
X132420857Y-92495714D01*
X132516095Y-92543333D01*
X132563714Y-92638571D01*
X132563714Y-93162380D01*
X133039904Y-93162380D02*
X133039904Y-92495714D01*
X133039904Y-92162380D02*
X132992285Y-92210000D01*
X133039904Y-92257619D01*
X133087523Y-92210000D01*
X133039904Y-92162380D01*
X133039904Y-92257619D01*
X133516095Y-93162380D02*
X133516095Y-92162380D01*
X133611333Y-92781428D02*
X133897047Y-93162380D01*
X133897047Y-92495714D02*
X133516095Y-92876666D01*
X135611333Y-92210000D02*
X135516095Y-92162380D01*
X135373238Y-92162380D01*
X135230380Y-92210000D01*
X135135142Y-92305238D01*
X135087523Y-92400476D01*
X135039904Y-92590952D01*
X135039904Y-92733809D01*
X135087523Y-92924285D01*
X135135142Y-93019523D01*
X135230380Y-93114761D01*
X135373238Y-93162380D01*
X135468476Y-93162380D01*
X135611333Y-93114761D01*
X135658952Y-93067142D01*
X135658952Y-92733809D01*
X135468476Y-92733809D01*
X136468476Y-93114761D02*
X136373238Y-93162380D01*
X136182761Y-93162380D01*
X136087523Y-93114761D01*
X136039904Y-93019523D01*
X136039904Y-92638571D01*
X136087523Y-92543333D01*
X136182761Y-92495714D01*
X136373238Y-92495714D01*
X136468476Y-92543333D01*
X136516095Y-92638571D01*
X136516095Y-92733809D01*
X136039904Y-92829047D01*
X137373238Y-92495714D02*
X137373238Y-93305238D01*
X137325619Y-93400476D01*
X137278000Y-93448095D01*
X137182761Y-93495714D01*
X137039904Y-93495714D01*
X136944666Y-93448095D01*
X137373238Y-93114761D02*
X137278000Y-93162380D01*
X137087523Y-93162380D01*
X136992285Y-93114761D01*
X136944666Y-93067142D01*
X136897047Y-92971904D01*
X136897047Y-92686190D01*
X136944666Y-92590952D01*
X136992285Y-92543333D01*
X137087523Y-92495714D01*
X137278000Y-92495714D01*
X137373238Y-92543333D01*
X138278000Y-92495714D02*
X138278000Y-93305238D01*
X138230380Y-93400476D01*
X138182761Y-93448095D01*
X138087523Y-93495714D01*
X137944666Y-93495714D01*
X137849428Y-93448095D01*
X138278000Y-93114761D02*
X138182761Y-93162380D01*
X137992285Y-93162380D01*
X137897047Y-93114761D01*
X137849428Y-93067142D01*
X137801809Y-92971904D01*
X137801809Y-92686190D01*
X137849428Y-92590952D01*
X137897047Y-92543333D01*
X137992285Y-92495714D01*
X138182761Y-92495714D01*
X138278000Y-92543333D01*
D11*
X153323142Y-87371857D02*
X153323142Y-86938523D01*
X154004095Y-86752809D02*
X154004095Y-87371857D01*
X152704095Y-87371857D01*
X152704095Y-86752809D01*
X152704095Y-86319476D02*
X154004095Y-85452809D01*
X152704095Y-85452809D02*
X154004095Y-86319476D01*
X152704095Y-85143285D02*
X152704095Y-84400428D01*
X154004095Y-84771857D02*
X152704095Y-84771857D01*
X152963619Y-98609809D02*
X151863619Y-98609809D01*
X151968380Y-98138380D02*
X151916000Y-98086000D01*
X151863619Y-97981238D01*
X151863619Y-97719333D01*
X151916000Y-97614571D01*
X151968380Y-97562190D01*
X152073142Y-97509809D01*
X152177904Y-97509809D01*
X152335047Y-97562190D01*
X152963619Y-98190761D01*
X152963619Y-97509809D01*
X152858857Y-96409809D02*
X152911238Y-96462190D01*
X152963619Y-96619333D01*
X152963619Y-96724095D01*
X152911238Y-96881238D01*
X152806476Y-96986000D01*
X152701714Y-97038380D01*
X152492190Y-97090761D01*
X152335047Y-97090761D01*
X152125523Y-97038380D01*
X152020761Y-96986000D01*
X151916000Y-96881238D01*
X151863619Y-96724095D01*
X151863619Y-96619333D01*
X151916000Y-96462190D01*
X151968380Y-96409809D01*
X153763619Y-99133619D02*
X153763619Y-98924095D01*
X153816000Y-98819333D01*
X153920761Y-98714571D01*
X154130285Y-98662190D01*
X154496952Y-98662190D01*
X154706476Y-98714571D01*
X154811238Y-98819333D01*
X154863619Y-98924095D01*
X154863619Y-99133619D01*
X154811238Y-99238380D01*
X154706476Y-99343142D01*
X154496952Y-99395523D01*
X154130285Y-99395523D01*
X153920761Y-99343142D01*
X153816000Y-99238380D01*
X153763619Y-99133619D01*
X154863619Y-97666952D02*
X154863619Y-98190761D01*
X153763619Y-98190761D01*
X154287428Y-97300285D02*
X154287428Y-96933619D01*
X154863619Y-96776476D02*
X154863619Y-97300285D01*
X153763619Y-97300285D01*
X153763619Y-96776476D01*
X154863619Y-96305047D02*
X153763619Y-96305047D01*
X153763619Y-96043142D01*
X153816000Y-95886000D01*
X153920761Y-95781238D01*
X154025523Y-95728857D01*
X154235047Y-95676476D01*
X154392190Y-95676476D01*
X154601714Y-95728857D01*
X154706476Y-95781238D01*
X154811238Y-95886000D01*
X154863619Y-96043142D01*
X154863619Y-96305047D01*
X145083761Y-107903095D02*
X145083761Y-106603095D01*
X145393285Y-106603095D01*
X145579000Y-106665000D01*
X145702809Y-106788809D01*
X145764714Y-106912619D01*
X145826619Y-107160238D01*
X145826619Y-107345952D01*
X145764714Y-107593571D01*
X145702809Y-107717380D01*
X145579000Y-107841190D01*
X145393285Y-107903095D01*
X145083761Y-107903095D01*
X146940904Y-107036428D02*
X146940904Y-107903095D01*
X146383761Y-107036428D02*
X146383761Y-107717380D01*
X146445666Y-107841190D01*
X146569476Y-107903095D01*
X146755190Y-107903095D01*
X146879000Y-107841190D01*
X146940904Y-107779285D01*
X148055190Y-107841190D02*
X147931380Y-107903095D01*
X147683761Y-107903095D01*
X147559952Y-107841190D01*
X147498047Y-107717380D01*
X147498047Y-107222142D01*
X147559952Y-107098333D01*
X147683761Y-107036428D01*
X147931380Y-107036428D01*
X148055190Y-107098333D01*
X148117095Y-107222142D01*
X148117095Y-107345952D01*
X147498047Y-107469761D01*
X148488523Y-107036428D02*
X148983761Y-107036428D01*
X148674238Y-106603095D02*
X148674238Y-107717380D01*
X148736142Y-107841190D01*
X148859952Y-107903095D01*
X148983761Y-107903095D01*
X150345666Y-106541190D02*
X149231380Y-108212619D01*
X151521857Y-107903095D02*
X151088523Y-107284047D01*
X150779000Y-107903095D02*
X150779000Y-106603095D01*
X151274238Y-106603095D01*
X151398047Y-106665000D01*
X151459952Y-106726904D01*
X151521857Y-106850714D01*
X151521857Y-107036428D01*
X151459952Y-107160238D01*
X151398047Y-107222142D01*
X151274238Y-107284047D01*
X150779000Y-107284047D01*
X152821857Y-107903095D02*
X152388523Y-107284047D01*
X152079000Y-107903095D02*
X152079000Y-106603095D01*
X152574238Y-106603095D01*
X152698047Y-106665000D01*
X152759952Y-106726904D01*
X152821857Y-106850714D01*
X152821857Y-107036428D01*
X152759952Y-107160238D01*
X152698047Y-107222142D01*
X152574238Y-107284047D01*
X152079000Y-107284047D01*
X153812333Y-107222142D02*
X153379000Y-107222142D01*
X153379000Y-107903095D02*
X153379000Y-106603095D01*
X153998047Y-106603095D01*
X131045476Y-107903095D02*
X131045476Y-106603095D01*
X131540714Y-106603095D01*
X131664523Y-106665000D01*
X131726428Y-106726904D01*
X131788333Y-106850714D01*
X131788333Y-107036428D01*
X131726428Y-107160238D01*
X131664523Y-107222142D01*
X131540714Y-107284047D01*
X131045476Y-107284047D01*
X132902619Y-107903095D02*
X132902619Y-107222142D01*
X132840714Y-107098333D01*
X132716904Y-107036428D01*
X132469285Y-107036428D01*
X132345476Y-107098333D01*
X132902619Y-107841190D02*
X132778809Y-107903095D01*
X132469285Y-107903095D01*
X132345476Y-107841190D01*
X132283571Y-107717380D01*
X132283571Y-107593571D01*
X132345476Y-107469761D01*
X132469285Y-107407857D01*
X132778809Y-107407857D01*
X132902619Y-107345952D01*
X133521666Y-107036428D02*
X133521666Y-107903095D01*
X133521666Y-107160238D02*
X133583571Y-107098333D01*
X133707380Y-107036428D01*
X133893095Y-107036428D01*
X134016904Y-107098333D01*
X134078809Y-107222142D01*
X134078809Y-107903095D01*
X135193095Y-107841190D02*
X135069285Y-107903095D01*
X134821666Y-107903095D01*
X134697857Y-107841190D01*
X134635952Y-107717380D01*
X134635952Y-107222142D01*
X134697857Y-107098333D01*
X134821666Y-107036428D01*
X135069285Y-107036428D01*
X135193095Y-107098333D01*
X135255000Y-107222142D01*
X135255000Y-107345952D01*
X134635952Y-107469761D01*
X135997857Y-107903095D02*
X135874047Y-107841190D01*
X135812142Y-107717380D01*
X135812142Y-106603095D01*
X136493095Y-107903095D02*
X136493095Y-106603095D01*
X136802619Y-106603095D01*
X136988333Y-106665000D01*
X137112142Y-106788809D01*
X137174047Y-106912619D01*
X137235952Y-107160238D01*
X137235952Y-107345952D01*
X137174047Y-107593571D01*
X137112142Y-107717380D01*
X136988333Y-107841190D01*
X136802619Y-107903095D01*
X136493095Y-107903095D01*
X138350238Y-107036428D02*
X138350238Y-107903095D01*
X137793095Y-107036428D02*
X137793095Y-107717380D01*
X137855000Y-107841190D01*
X137978809Y-107903095D01*
X138164523Y-107903095D01*
X138288333Y-107841190D01*
X138350238Y-107779285D01*
X139464523Y-107841190D02*
X139340714Y-107903095D01*
X139093095Y-107903095D01*
X138969285Y-107841190D01*
X138907380Y-107717380D01*
X138907380Y-107222142D01*
X138969285Y-107098333D01*
X139093095Y-107036428D01*
X139340714Y-107036428D01*
X139464523Y-107098333D01*
X139526428Y-107222142D01*
X139526428Y-107345952D01*
X138907380Y-107469761D01*
X113261333Y-107841190D02*
X113447047Y-107903095D01*
X113756571Y-107903095D01*
X113880380Y-107841190D01*
X113942285Y-107779285D01*
X114004190Y-107655476D01*
X114004190Y-107531666D01*
X113942285Y-107407857D01*
X113880380Y-107345952D01*
X113756571Y-107284047D01*
X113508952Y-107222142D01*
X113385142Y-107160238D01*
X113323238Y-107098333D01*
X113261333Y-106974523D01*
X113261333Y-106850714D01*
X113323238Y-106726904D01*
X113385142Y-106665000D01*
X113508952Y-106603095D01*
X113818476Y-106603095D01*
X114004190Y-106665000D01*
X114561333Y-107903095D02*
X114561333Y-106603095D01*
X114994666Y-107531666D01*
X115428000Y-106603095D01*
X115428000Y-107903095D01*
X116604190Y-107036428D02*
X116604190Y-107903095D01*
X116047047Y-107036428D02*
X116047047Y-107717380D01*
X116108952Y-107841190D01*
X116232761Y-107903095D01*
X116418476Y-107903095D01*
X116542285Y-107841190D01*
X116604190Y-107779285D01*
X117656571Y-107222142D02*
X117223238Y-107222142D01*
X117223238Y-107903095D02*
X117223238Y-106603095D01*
X117842285Y-106603095D01*
X118770857Y-107222142D02*
X118337523Y-107222142D01*
X118337523Y-107903095D02*
X118337523Y-106603095D01*
X118956571Y-106603095D01*
D12*
X108585000Y-86995000D02*
X108585000Y-95250000D01*
X102870000Y-95250000D02*
X102870000Y-86995000D01*
X108585000Y-95250000D02*
X102870000Y-95250000D01*
X102870000Y-86995000D02*
X108585000Y-86995000D01*
D13*
X105076761Y-93709809D02*
X106695809Y-93709809D01*
X106886285Y-93614571D01*
X106981523Y-93519333D01*
X107076761Y-93328857D01*
X107076761Y-92947904D01*
X106981523Y-92757428D01*
X106886285Y-92662190D01*
X106695809Y-92566952D01*
X105076761Y-92566952D01*
X106981523Y-91709809D02*
X107076761Y-91424095D01*
X107076761Y-90947904D01*
X106981523Y-90757428D01*
X106886285Y-90662190D01*
X106695809Y-90566952D01*
X106505333Y-90566952D01*
X106314857Y-90662190D01*
X106219619Y-90757428D01*
X106124380Y-90947904D01*
X106029142Y-91328857D01*
X105933904Y-91519333D01*
X105838666Y-91614571D01*
X105648190Y-91709809D01*
X105457714Y-91709809D01*
X105267238Y-91614571D01*
X105172000Y-91519333D01*
X105076761Y-91328857D01*
X105076761Y-90852666D01*
X105172000Y-90566952D01*
X106029142Y-89043142D02*
X106124380Y-88757428D01*
X106219619Y-88662190D01*
X106410095Y-88566952D01*
X106695809Y-88566952D01*
X106886285Y-88662190D01*
X106981523Y-88757428D01*
X107076761Y-88947904D01*
X107076761Y-89709809D01*
X105076761Y-89709809D01*
X105076761Y-89043142D01*
X105172000Y-88852666D01*
X105267238Y-88757428D01*
X105457714Y-88662190D01*
X105648190Y-88662190D01*
X105838666Y-88757428D01*
X105933904Y-88852666D01*
X106029142Y-89043142D01*
X106029142Y-89709809D01*
D11*
X119536119Y-91077190D02*
X119721833Y-91139095D01*
X120031357Y-91139095D01*
X120155166Y-91077190D01*
X120217071Y-91015285D01*
X120278976Y-90891476D01*
X120278976Y-90767666D01*
X120217071Y-90643857D01*
X120155166Y-90581952D01*
X120031357Y-90520047D01*
X119783738Y-90458142D01*
X119659928Y-90396238D01*
X119598023Y-90334333D01*
X119536119Y-90210523D01*
X119536119Y-90086714D01*
X119598023Y-89962904D01*
X119659928Y-89901000D01*
X119783738Y-89839095D01*
X120093261Y-89839095D01*
X120278976Y-89901000D01*
X120836119Y-91139095D02*
X120836119Y-89839095D01*
X121269452Y-90767666D01*
X121702785Y-89839095D01*
X121702785Y-91139095D01*
X122878976Y-90272428D02*
X122878976Y-91139095D01*
X122321833Y-90272428D02*
X122321833Y-90953380D01*
X122383738Y-91077190D01*
X122507547Y-91139095D01*
X122693261Y-91139095D01*
X122817071Y-91077190D01*
X122878976Y-91015285D01*
X123931357Y-90458142D02*
X123498023Y-90458142D01*
X123498023Y-91139095D02*
X123498023Y-89839095D01*
X124117071Y-89839095D01*
X125045642Y-90458142D02*
X124612309Y-90458142D01*
X124612309Y-91139095D02*
X124612309Y-89839095D01*
X125231357Y-89839095D01*
X125726595Y-90643857D02*
X126717071Y-90643857D01*
X127336119Y-91139095D02*
X127336119Y-89839095D01*
X127769452Y-90272428D02*
X128264690Y-90272428D01*
X127955166Y-91139095D02*
X127955166Y-90024809D01*
X128017071Y-89901000D01*
X128140880Y-89839095D01*
X128264690Y-89839095D01*
X129255166Y-91077190D02*
X129131357Y-91139095D01*
X128883738Y-91139095D01*
X128759928Y-91077190D01*
X128698023Y-91015285D01*
X128636119Y-90891476D01*
X128636119Y-90520047D01*
X128698023Y-90396238D01*
X128759928Y-90334333D01*
X128883738Y-90272428D01*
X129131357Y-90272428D01*
X129255166Y-90334333D01*
X129750404Y-89962904D02*
X129812309Y-89901000D01*
X129936119Y-89839095D01*
X130245642Y-89839095D01*
X130369452Y-89901000D01*
X130431357Y-89962904D01*
X130493261Y-90086714D01*
X130493261Y-90210523D01*
X130431357Y-90396238D01*
X129688500Y-91139095D01*
X130493261Y-91139095D01*
X132040880Y-90458142D02*
X132474214Y-90458142D01*
X132659928Y-91139095D02*
X132040880Y-91139095D01*
X132040880Y-89839095D01*
X132659928Y-89839095D01*
X133155166Y-91077190D02*
X133340880Y-91139095D01*
X133650404Y-91139095D01*
X133774214Y-91077190D01*
X133836119Y-91015285D01*
X133898023Y-90891476D01*
X133898023Y-90767666D01*
X133836119Y-90643857D01*
X133774214Y-90581952D01*
X133650404Y-90520047D01*
X133402785Y-90458142D01*
X133278976Y-90396238D01*
X133217071Y-90334333D01*
X133155166Y-90210523D01*
X133155166Y-90086714D01*
X133217071Y-89962904D01*
X133278976Y-89901000D01*
X133402785Y-89839095D01*
X133712309Y-89839095D01*
X133898023Y-89901000D01*
X134455166Y-91139095D02*
X134455166Y-89839095D01*
X134950404Y-89839095D01*
X135074214Y-89901000D01*
X135136119Y-89962904D01*
X135198023Y-90086714D01*
X135198023Y-90272428D01*
X135136119Y-90396238D01*
X135074214Y-90458142D01*
X134950404Y-90520047D01*
X134455166Y-90520047D01*
X135631357Y-89839095D02*
X136436119Y-89839095D01*
X136002785Y-90334333D01*
X136188500Y-90334333D01*
X136312309Y-90396238D01*
X136374214Y-90458142D01*
X136436119Y-90581952D01*
X136436119Y-90891476D01*
X136374214Y-91015285D01*
X136312309Y-91077190D01*
X136188500Y-91139095D01*
X135817071Y-91139095D01*
X135693261Y-91077190D01*
X135631357Y-91015285D01*
X136931357Y-89962904D02*
X136993261Y-89901000D01*
X137117071Y-89839095D01*
X137426595Y-89839095D01*
X137550404Y-89901000D01*
X137612309Y-89962904D01*
X137674214Y-90086714D01*
X137674214Y-90210523D01*
X137612309Y-90396238D01*
X136869452Y-91139095D01*
X137674214Y-91139095D01*
D14*
G36*
X114490028Y-89623070D02*
G01*
X114714090Y-89718285D01*
X114798271Y-89787738D01*
X114765363Y-89852687D01*
X114749451Y-89865039D01*
X114560284Y-90080286D01*
X114402227Y-90392583D01*
X114304260Y-90729659D01*
X114292765Y-91003925D01*
X114307896Y-91291457D01*
X114279391Y-91559558D01*
X114277617Y-91567000D01*
X114215333Y-91821000D01*
X113777921Y-91397667D01*
X113534866Y-91142144D01*
X113326730Y-90887662D01*
X113204345Y-90699357D01*
X113120532Y-90502449D01*
X113123027Y-90365855D01*
X113210135Y-90207730D01*
X113363702Y-90032708D01*
X113595002Y-89830689D01*
X113727160Y-89733025D01*
X114102232Y-89474969D01*
X114490028Y-89623070D01*
X114490028Y-89623070D01*
G37*
X114490028Y-89623070D02*
X114714090Y-89718285D01*
X114798271Y-89787738D01*
X114765363Y-89852687D01*
X114749451Y-89865039D01*
X114560284Y-90080286D01*
X114402227Y-90392583D01*
X114304260Y-90729659D01*
X114292765Y-91003925D01*
X114307896Y-91291457D01*
X114279391Y-91559558D01*
X114277617Y-91567000D01*
X114215333Y-91821000D01*
X113777921Y-91397667D01*
X113534866Y-91142144D01*
X113326730Y-90887662D01*
X113204345Y-90699357D01*
X113120532Y-90502449D01*
X113123027Y-90365855D01*
X113210135Y-90207730D01*
X113363702Y-90032708D01*
X113595002Y-89830689D01*
X113727160Y-89733025D01*
X114102232Y-89474969D01*
X114490028Y-89623070D01*
G36*
X116884807Y-89608302D02*
G01*
X117154177Y-89729803D01*
X117158823Y-89732852D01*
X117463692Y-89991986D01*
X117616200Y-90276709D01*
X117641640Y-90471318D01*
X117618202Y-90684937D01*
X117523296Y-90861796D01*
X117327669Y-91040050D01*
X117072833Y-91213225D01*
X116827691Y-91378558D01*
X116727638Y-91466647D01*
X116766578Y-91476515D01*
X116938413Y-91407184D01*
X117237048Y-91257677D01*
X117263333Y-91243765D01*
X117813667Y-90951537D01*
X117813667Y-91291779D01*
X117735505Y-91852664D01*
X117513382Y-92354756D01*
X117165840Y-92771618D01*
X116711420Y-93076812D01*
X116501703Y-93162443D01*
X116123947Y-93270737D01*
X115858701Y-93292160D01*
X115672950Y-93226425D01*
X115594002Y-93154500D01*
X115364663Y-92831109D01*
X115288677Y-92547127D01*
X115363331Y-92276265D01*
X115485333Y-92101893D01*
X115643563Y-91872656D01*
X115684571Y-91725752D01*
X115623230Y-91681613D01*
X115474414Y-91760670D01*
X115333124Y-91892788D01*
X114973451Y-92169326D01*
X114573381Y-92283300D01*
X114147039Y-92231964D01*
X113961333Y-92159410D01*
X113707333Y-92039791D01*
X114043146Y-92057396D01*
X114378958Y-92075000D01*
X114439173Y-91666685D01*
X114495384Y-91360401D01*
X114564626Y-91078798D01*
X114589082Y-91001075D01*
X114603058Y-90955489D01*
X115443000Y-90955489D01*
X115494475Y-90971450D01*
X115612852Y-90889197D01*
X115723840Y-90764021D01*
X115741898Y-90694676D01*
X115654444Y-90704607D01*
X115536113Y-90796854D01*
X115452254Y-90914397D01*
X115443000Y-90955489D01*
X114603058Y-90955489D01*
X114640060Y-90834803D01*
X114621301Y-90799775D01*
X114552888Y-90848256D01*
X114452386Y-90901035D01*
X114433384Y-90820978D01*
X114496046Y-90602047D01*
X114564492Y-90422466D01*
X114757112Y-90124623D01*
X115031719Y-89926891D01*
X115346255Y-89841229D01*
X115658661Y-89879595D01*
X115912515Y-90039152D01*
X116059432Y-90152433D01*
X116119415Y-90139120D01*
X116077661Y-90025825D01*
X115985716Y-89907583D01*
X115913557Y-89808820D01*
X115946499Y-89746373D01*
X116111089Y-89686932D01*
X116176216Y-89668555D01*
X116575443Y-89588974D01*
X116884807Y-89608302D01*
X116884807Y-89608302D01*
G37*
X116884807Y-89608302D02*
X117154177Y-89729803D01*
X117158823Y-89732852D01*
X117463692Y-89991986D01*
X117616200Y-90276709D01*
X117641640Y-90471318D01*
X117618202Y-90684937D01*
X117523296Y-90861796D01*
X117327669Y-91040050D01*
X117072833Y-91213225D01*
X116827691Y-91378558D01*
X116727638Y-91466647D01*
X116766578Y-91476515D01*
X116938413Y-91407184D01*
X117237048Y-91257677D01*
X117263333Y-91243765D01*
X117813667Y-90951537D01*
X117813667Y-91291779D01*
X117735505Y-91852664D01*
X117513382Y-92354756D01*
X117165840Y-92771618D01*
X116711420Y-93076812D01*
X116501703Y-93162443D01*
X116123947Y-93270737D01*
X115858701Y-93292160D01*
X115672950Y-93226425D01*
X115594002Y-93154500D01*
X115364663Y-92831109D01*
X115288677Y-92547127D01*
X115363331Y-92276265D01*
X115485333Y-92101893D01*
X115643563Y-91872656D01*
X115684571Y-91725752D01*
X115623230Y-91681613D01*
X115474414Y-91760670D01*
X115333124Y-91892788D01*
X114973451Y-92169326D01*
X114573381Y-92283300D01*
X114147039Y-92231964D01*
X113961333Y-92159410D01*
X113707333Y-92039791D01*
X114043146Y-92057396D01*
X114378958Y-92075000D01*
X114439173Y-91666685D01*
X114495384Y-91360401D01*
X114564626Y-91078798D01*
X114589082Y-91001075D01*
X114603058Y-90955489D01*
X115443000Y-90955489D01*
X115494475Y-90971450D01*
X115612852Y-90889197D01*
X115723840Y-90764021D01*
X115741898Y-90694676D01*
X115654444Y-90704607D01*
X115536113Y-90796854D01*
X115452254Y-90914397D01*
X115443000Y-90955489D01*
X114603058Y-90955489D01*
X114640060Y-90834803D01*
X114621301Y-90799775D01*
X114552888Y-90848256D01*
X114452386Y-90901035D01*
X114433384Y-90820978D01*
X114496046Y-90602047D01*
X114564492Y-90422466D01*
X114757112Y-90124623D01*
X115031719Y-89926891D01*
X115346255Y-89841229D01*
X115658661Y-89879595D01*
X115912515Y-90039152D01*
X116059432Y-90152433D01*
X116119415Y-90139120D01*
X116077661Y-90025825D01*
X115985716Y-89907583D01*
X115913557Y-89808820D01*
X115946499Y-89746373D01*
X116111089Y-89686932D01*
X116176216Y-89668555D01*
X116575443Y-89588974D01*
X116884807Y-89608302D01*
G36*
X114911922Y-92464162D02*
G01*
X115049866Y-92500091D01*
X115115240Y-92589577D01*
X115142912Y-92692904D01*
X115237960Y-92920982D01*
X115396305Y-93146856D01*
X115403639Y-93154876D01*
X115531078Y-93337582D01*
X115604723Y-93527872D01*
X115611462Y-93674195D01*
X115548833Y-93725684D01*
X115441075Y-93685047D01*
X115256106Y-93585144D01*
X115213555Y-93559656D01*
X115001316Y-93385522D01*
X114783026Y-93139608D01*
X114705633Y-93030805D01*
X114543190Y-92798583D01*
X114396648Y-92617915D01*
X114342411Y-92564526D01*
X114296322Y-92504020D01*
X114364755Y-92471777D01*
X114571782Y-92459596D01*
X114653106Y-92458693D01*
X114911922Y-92464162D01*
X114911922Y-92464162D01*
G37*
X114911922Y-92464162D02*
X115049866Y-92500091D01*
X115115240Y-92589577D01*
X115142912Y-92692904D01*
X115237960Y-92920982D01*
X115396305Y-93146856D01*
X115403639Y-93154876D01*
X115531078Y-93337582D01*
X115604723Y-93527872D01*
X115611462Y-93674195D01*
X115548833Y-93725684D01*
X115441075Y-93685047D01*
X115256106Y-93585144D01*
X115213555Y-93559656D01*
X115001316Y-93385522D01*
X114783026Y-93139608D01*
X114705633Y-93030805D01*
X114543190Y-92798583D01*
X114396648Y-92617915D01*
X114342411Y-92564526D01*
X114296322Y-92504020D01*
X114364755Y-92471777D01*
X114571782Y-92459596D01*
X114653106Y-92458693D01*
X114911922Y-92464162D01*
G36*
X116395894Y-88517206D02*
G01*
X116922422Y-88723244D01*
X117506936Y-89098196D01*
X117974047Y-89575661D01*
X118318328Y-90131845D01*
X118534353Y-90742953D01*
X118616693Y-91385192D01*
X118559921Y-92034767D01*
X118358612Y-92667884D01*
X118007338Y-93260749D01*
X117968716Y-93310643D01*
X117462558Y-93819332D01*
X116863199Y-94194375D01*
X116190709Y-94427996D01*
X115465162Y-94512417D01*
X114949757Y-94480370D01*
X114310728Y-94314790D01*
X113708068Y-94007317D01*
X113174386Y-93583401D01*
X112742291Y-93068489D01*
X112464224Y-92540667D01*
X112317216Y-91970378D01*
X112285495Y-91440000D01*
X112529401Y-91440000D01*
X112536742Y-91826806D01*
X112569066Y-92109880D01*
X112639514Y-92354410D01*
X112761231Y-92625585D01*
X112773350Y-92649927D01*
X113151585Y-93229235D01*
X113634919Y-93690391D01*
X114200093Y-94025688D01*
X114823848Y-94227419D01*
X115482925Y-94287877D01*
X116154065Y-94199355D01*
X116772043Y-93974932D01*
X117338808Y-93608086D01*
X117818625Y-93110925D01*
X118161214Y-92558985D01*
X118266677Y-92301563D01*
X118327138Y-92029760D01*
X118353152Y-91683125D01*
X118356599Y-91440000D01*
X118349257Y-91053195D01*
X118316934Y-90770120D01*
X118246486Y-90525590D01*
X118124769Y-90254416D01*
X118112650Y-90230073D01*
X117737077Y-89662871D01*
X117232381Y-89185805D01*
X116643162Y-88832955D01*
X116355399Y-88715524D01*
X116083047Y-88647537D01*
X115759615Y-88616762D01*
X115435077Y-88610731D01*
X115051758Y-88617378D01*
X114769996Y-88648187D01*
X114522296Y-88717541D01*
X114241166Y-88839827D01*
X114148367Y-88884969D01*
X113545717Y-89273964D01*
X113051537Y-89788645D01*
X112724786Y-90321016D01*
X112619323Y-90578437D01*
X112558862Y-90850241D01*
X112532848Y-91196875D01*
X112529401Y-91440000D01*
X112285495Y-91440000D01*
X112279568Y-91340907D01*
X112351280Y-90722353D01*
X112464224Y-90339334D01*
X112786001Y-89733535D01*
X113226286Y-89228929D01*
X113761951Y-88833899D01*
X114369871Y-88556829D01*
X115026920Y-88406101D01*
X115709969Y-88390099D01*
X116395894Y-88517206D01*
X116395894Y-88517206D01*
G37*
X116395894Y-88517206D02*
X116922422Y-88723244D01*
X117506936Y-89098196D01*
X117974047Y-89575661D01*
X118318328Y-90131845D01*
X118534353Y-90742953D01*
X118616693Y-91385192D01*
X118559921Y-92034767D01*
X118358612Y-92667884D01*
X118007338Y-93260749D01*
X117968716Y-93310643D01*
X117462558Y-93819332D01*
X116863199Y-94194375D01*
X116190709Y-94427996D01*
X115465162Y-94512417D01*
X114949757Y-94480370D01*
X114310728Y-94314790D01*
X113708068Y-94007317D01*
X113174386Y-93583401D01*
X112742291Y-93068489D01*
X112464224Y-92540667D01*
X112317216Y-91970378D01*
X112285495Y-91440000D01*
X112529401Y-91440000D01*
X112536742Y-91826806D01*
X112569066Y-92109880D01*
X112639514Y-92354410D01*
X112761231Y-92625585D01*
X112773350Y-92649927D01*
X113151585Y-93229235D01*
X113634919Y-93690391D01*
X114200093Y-94025688D01*
X114823848Y-94227419D01*
X115482925Y-94287877D01*
X116154065Y-94199355D01*
X116772043Y-93974932D01*
X117338808Y-93608086D01*
X117818625Y-93110925D01*
X118161214Y-92558985D01*
X118266677Y-92301563D01*
X118327138Y-92029760D01*
X118353152Y-91683125D01*
X118356599Y-91440000D01*
X118349257Y-91053195D01*
X118316934Y-90770120D01*
X118246486Y-90525590D01*
X118124769Y-90254416D01*
X118112650Y-90230073D01*
X117737077Y-89662871D01*
X117232381Y-89185805D01*
X116643162Y-88832955D01*
X116355399Y-88715524D01*
X116083047Y-88647537D01*
X115759615Y-88616762D01*
X115435077Y-88610731D01*
X115051758Y-88617378D01*
X114769996Y-88648187D01*
X114522296Y-88717541D01*
X114241166Y-88839827D01*
X114148367Y-88884969D01*
X113545717Y-89273964D01*
X113051537Y-89788645D01*
X112724786Y-90321016D01*
X112619323Y-90578437D01*
X112558862Y-90850241D01*
X112532848Y-91196875D01*
X112529401Y-91440000D01*
X112285495Y-91440000D01*
X112279568Y-91340907D01*
X112351280Y-90722353D01*
X112464224Y-90339334D01*
X112786001Y-89733535D01*
X113226286Y-89228929D01*
X113761951Y-88833899D01*
X114369871Y-88556829D01*
X115026920Y-88406101D01*
X115709969Y-88390099D01*
X116395894Y-88517206D01*
D12*
X119912000Y-83693000D02*
X123222000Y-83693000D01*
X133072000Y-83693000D02*
X129762000Y-83693000D01*
X123222000Y-85063000D02*
X129762000Y-85063000D01*
X123222000Y-82323000D02*
X123222000Y-85063000D01*
X129762000Y-82323000D02*
X123222000Y-82323000D01*
X129762000Y-85063000D02*
X129762000Y-82323000D01*
X104715000Y-95952000D02*
X106045000Y-95952000D01*
X104715000Y-97282000D02*
X104715000Y-95952000D01*
X107315000Y-95952000D02*
X109915000Y-95952000D01*
X107315000Y-98552000D02*
X107315000Y-95952000D01*
X104715000Y-98552000D02*
X107315000Y-98552000D01*
X109915000Y-95952000D02*
X109915000Y-101152000D01*
X104715000Y-98552000D02*
X104715000Y-101152000D01*
X104715000Y-101152000D02*
X109915000Y-101152000D01*
X155380000Y-88266000D02*
X155980000Y-88566000D01*
X155380000Y-88866000D02*
X155380000Y-88266000D01*
X155980000Y-88566000D02*
X155380000Y-88866000D01*
X159080000Y-83316000D02*
X159080000Y-83816000D01*
X164580000Y-83316000D02*
X159080000Y-83316000D01*
X164580000Y-83816000D02*
X164580000Y-83316000D01*
X159080000Y-83816000D02*
X164580000Y-83816000D01*
X159080000Y-85816000D02*
X159080000Y-86316000D01*
X164580000Y-85816000D02*
X159080000Y-85816000D01*
X164580000Y-86316000D02*
X164580000Y-85816000D01*
X159080000Y-86316000D02*
X164580000Y-86316000D01*
X159080000Y-88316000D02*
X159080000Y-88816000D01*
X164580000Y-88316000D02*
X159080000Y-88316000D01*
X164580000Y-88816000D02*
X164580000Y-88316000D01*
X159080000Y-88816000D02*
X164580000Y-88816000D01*
X153470000Y-82426000D02*
X157970000Y-82426000D01*
X153470000Y-81006000D02*
X153470000Y-82426000D01*
X165190000Y-81006000D02*
X153470000Y-81006000D01*
X165190000Y-86066000D02*
X165190000Y-81006000D01*
X153470000Y-89706000D02*
X157970000Y-89706000D01*
X153470000Y-91126000D02*
X153470000Y-89706000D01*
X165190000Y-91126000D02*
X153470000Y-91126000D01*
X165190000Y-86066000D02*
X165190000Y-91126000D01*
X155380000Y-101046000D02*
X155980000Y-101346000D01*
X155380000Y-101646000D02*
X155380000Y-101046000D01*
X155980000Y-101346000D02*
X155380000Y-101646000D01*
X159080000Y-93596000D02*
X159080000Y-94096000D01*
X164580000Y-93596000D02*
X159080000Y-93596000D01*
X164580000Y-94096000D02*
X164580000Y-93596000D01*
X159080000Y-94096000D02*
X164580000Y-94096000D01*
X159080000Y-96096000D02*
X159080000Y-96596000D01*
X164580000Y-96096000D02*
X159080000Y-96096000D01*
X164580000Y-96596000D02*
X164580000Y-96096000D01*
X159080000Y-96596000D02*
X164580000Y-96596000D01*
X159080000Y-98596000D02*
X159080000Y-99096000D01*
X164580000Y-98596000D02*
X159080000Y-98596000D01*
X164580000Y-99096000D02*
X164580000Y-98596000D01*
X159080000Y-99096000D02*
X164580000Y-99096000D01*
X159080000Y-101096000D02*
X159080000Y-101596000D01*
X164580000Y-101096000D02*
X159080000Y-101096000D01*
X164580000Y-101596000D02*
X164580000Y-101096000D01*
X159080000Y-101596000D02*
X164580000Y-101596000D01*
X153470000Y-92706000D02*
X157970000Y-92706000D01*
X153470000Y-91286000D02*
X153470000Y-92706000D01*
X165190000Y-91286000D02*
X153470000Y-91286000D01*
X165190000Y-97596000D02*
X165190000Y-91286000D01*
X153470000Y-102486000D02*
X157970000Y-102486000D01*
X153470000Y-103906000D02*
X153470000Y-102486000D01*
X165190000Y-103906000D02*
X153470000Y-103906000D01*
X165190000Y-97596000D02*
X165190000Y-103906000D01*
X131872000Y-109152000D02*
X131572000Y-109752000D01*
X131272000Y-109152000D02*
X131872000Y-109152000D01*
X131572000Y-109752000D02*
X131272000Y-109152000D01*
X139322000Y-112852000D02*
X138822000Y-112852000D01*
X139322000Y-118352000D02*
X139322000Y-112852000D01*
X138822000Y-118352000D02*
X139322000Y-118352000D01*
X138822000Y-112852000D02*
X138822000Y-118352000D01*
X136822000Y-112852000D02*
X136322000Y-112852000D01*
X136822000Y-118352000D02*
X136822000Y-112852000D01*
X136322000Y-118352000D02*
X136822000Y-118352000D01*
X136322000Y-112852000D02*
X136322000Y-118352000D01*
X134322000Y-112852000D02*
X133822000Y-112852000D01*
X134322000Y-118352000D02*
X134322000Y-112852000D01*
X133822000Y-118352000D02*
X134322000Y-118352000D01*
X133822000Y-112852000D02*
X133822000Y-118352000D01*
X131822000Y-112852000D02*
X131322000Y-112852000D01*
X131822000Y-118352000D02*
X131822000Y-112852000D01*
X131322000Y-118352000D02*
X131822000Y-118352000D01*
X131322000Y-112852000D02*
X131322000Y-118352000D01*
X140212000Y-107242000D02*
X140212000Y-111742000D01*
X141632000Y-107242000D02*
X140212000Y-107242000D01*
X141632000Y-118962000D02*
X141632000Y-107242000D01*
X135322000Y-118962000D02*
X141632000Y-118962000D01*
X130432000Y-107242000D02*
X130432000Y-111742000D01*
X129012000Y-107242000D02*
X130432000Y-107242000D01*
X129012000Y-118962000D02*
X129012000Y-107242000D01*
X135322000Y-118962000D02*
X129012000Y-118962000D01*
X111552000Y-109152000D02*
X111252000Y-109752000D01*
X110952000Y-109152000D02*
X111552000Y-109152000D01*
X111252000Y-109752000D02*
X110952000Y-109152000D01*
X121502000Y-112852000D02*
X121002000Y-112852000D01*
X121502000Y-118352000D02*
X121502000Y-112852000D01*
X121002000Y-118352000D02*
X121502000Y-118352000D01*
X121002000Y-112852000D02*
X121002000Y-118352000D01*
X119002000Y-112852000D02*
X118502000Y-112852000D01*
X119002000Y-118352000D02*
X119002000Y-112852000D01*
X118502000Y-118352000D02*
X119002000Y-118352000D01*
X118502000Y-112852000D02*
X118502000Y-118352000D01*
X116502000Y-112852000D02*
X116002000Y-112852000D01*
X116502000Y-118352000D02*
X116502000Y-112852000D01*
X116002000Y-118352000D02*
X116502000Y-118352000D01*
X116002000Y-112852000D02*
X116002000Y-118352000D01*
X114002000Y-112852000D02*
X113502000Y-112852000D01*
X114002000Y-118352000D02*
X114002000Y-112852000D01*
X113502000Y-118352000D02*
X114002000Y-118352000D01*
X113502000Y-112852000D02*
X113502000Y-118352000D01*
X111502000Y-112852000D02*
X111002000Y-112852000D01*
X111502000Y-118352000D02*
X111502000Y-112852000D01*
X111002000Y-118352000D02*
X111502000Y-118352000D01*
X111002000Y-112852000D02*
X111002000Y-118352000D01*
X122392000Y-107242000D02*
X122392000Y-111742000D01*
X123812000Y-107242000D02*
X122392000Y-107242000D01*
X123812000Y-118962000D02*
X123812000Y-107242000D01*
X116252000Y-118962000D02*
X123812000Y-118962000D01*
X110112000Y-107242000D02*
X110112000Y-111742000D01*
X108692000Y-107242000D02*
X110112000Y-107242000D01*
X108692000Y-118962000D02*
X108692000Y-107242000D01*
X116252000Y-118962000D02*
X108692000Y-118962000D01*
X144572000Y-109152000D02*
X144272000Y-109752000D01*
X143972000Y-109152000D02*
X144572000Y-109152000D01*
X144272000Y-109752000D02*
X143972000Y-109152000D01*
X154522000Y-112852000D02*
X154022000Y-112852000D01*
X154522000Y-118352000D02*
X154522000Y-112852000D01*
X154022000Y-118352000D02*
X154522000Y-118352000D01*
X154022000Y-112852000D02*
X154022000Y-118352000D01*
X152022000Y-112852000D02*
X151522000Y-112852000D01*
X152022000Y-118352000D02*
X152022000Y-112852000D01*
X151522000Y-118352000D02*
X152022000Y-118352000D01*
X151522000Y-112852000D02*
X151522000Y-118352000D01*
X149522000Y-112852000D02*
X149022000Y-112852000D01*
X149522000Y-118352000D02*
X149522000Y-112852000D01*
X149022000Y-118352000D02*
X149522000Y-118352000D01*
X149022000Y-112852000D02*
X149022000Y-118352000D01*
X147022000Y-112852000D02*
X146522000Y-112852000D01*
X147022000Y-118352000D02*
X147022000Y-112852000D01*
X146522000Y-118352000D02*
X147022000Y-118352000D01*
X146522000Y-112852000D02*
X146522000Y-118352000D01*
X144522000Y-112852000D02*
X144022000Y-112852000D01*
X144522000Y-118352000D02*
X144522000Y-112852000D01*
X144022000Y-118352000D02*
X144522000Y-118352000D01*
X144022000Y-112852000D02*
X144022000Y-118352000D01*
X155412000Y-107242000D02*
X155412000Y-111742000D01*
X156832000Y-107242000D02*
X155412000Y-107242000D01*
X156832000Y-118962000D02*
X156832000Y-107242000D01*
X149272000Y-118962000D02*
X156832000Y-118962000D01*
X143132000Y-107242000D02*
X143132000Y-111742000D01*
X141712000Y-107242000D02*
X143132000Y-107242000D01*
X141712000Y-118962000D02*
X141712000Y-107242000D01*
X149272000Y-118962000D02*
X141712000Y-118962000D01*
D10*
X126198333Y-84145380D02*
X125865000Y-83669190D01*
X125626904Y-84145380D02*
X125626904Y-83145380D01*
X126007857Y-83145380D01*
X126103095Y-83193000D01*
X126150714Y-83240619D01*
X126198333Y-83335857D01*
X126198333Y-83478714D01*
X126150714Y-83573952D01*
X126103095Y-83621571D01*
X126007857Y-83669190D01*
X125626904Y-83669190D01*
X127150714Y-84145380D02*
X126579285Y-84145380D01*
X126865000Y-84145380D02*
X126865000Y-83145380D01*
X126769761Y-83288238D01*
X126674523Y-83383476D01*
X126579285Y-83431095D01*
X105076666Y-102322380D02*
X105076666Y-103036666D01*
X105029047Y-103179523D01*
X104933809Y-103274761D01*
X104790952Y-103322380D01*
X104695714Y-103322380D01*
X105981428Y-102322380D02*
X105790952Y-102322380D01*
X105695714Y-102370000D01*
X105648095Y-102417619D01*
X105552857Y-102560476D01*
X105505238Y-102750952D01*
X105505238Y-103131904D01*
X105552857Y-103227142D01*
X105600476Y-103274761D01*
X105695714Y-103322380D01*
X105886190Y-103322380D01*
X105981428Y-103274761D01*
X106029047Y-103227142D01*
X106076666Y-103131904D01*
X106076666Y-102893809D01*
X106029047Y-102798571D01*
X105981428Y-102750952D01*
X105886190Y-102703333D01*
X105695714Y-102703333D01*
X105600476Y-102750952D01*
X105552857Y-102798571D01*
X105505238Y-102893809D01*
X107950095Y-75779380D02*
X107950095Y-76588904D01*
X107997714Y-76684142D01*
X108045333Y-76731761D01*
X108140571Y-76779380D01*
X108331047Y-76779380D01*
X108426285Y-76731761D01*
X108473904Y-76684142D01*
X108521523Y-76588904D01*
X108521523Y-75779380D01*
X109521523Y-76779380D02*
X108950095Y-76779380D01*
X109235809Y-76779380D02*
X109235809Y-75779380D01*
X109140571Y-75922238D01*
X109045333Y-76017476D01*
X108950095Y-76065095D01*
X121266857Y-95446857D02*
X121533523Y-95446857D01*
X121647809Y-95865904D02*
X121266857Y-95865904D01*
X121266857Y-95065904D01*
X121647809Y-95065904D01*
X121952571Y-95827809D02*
X122066857Y-95865904D01*
X122257333Y-95865904D01*
X122333523Y-95827809D01*
X122371619Y-95789714D01*
X122409714Y-95713523D01*
X122409714Y-95637333D01*
X122371619Y-95561142D01*
X122333523Y-95523047D01*
X122257333Y-95484952D01*
X122104952Y-95446857D01*
X122028761Y-95408761D01*
X121990666Y-95370666D01*
X121952571Y-95294476D01*
X121952571Y-95218285D01*
X121990666Y-95142095D01*
X122028761Y-95104000D01*
X122104952Y-95065904D01*
X122295428Y-95065904D01*
X122409714Y-95104000D01*
X122752571Y-95865904D02*
X122752571Y-95065904D01*
X123057333Y-95065904D01*
X123133523Y-95104000D01*
X123171619Y-95142095D01*
X123209714Y-95218285D01*
X123209714Y-95332571D01*
X123171619Y-95408761D01*
X123133523Y-95446857D01*
X123057333Y-95484952D01*
X122752571Y-95484952D01*
X123476380Y-95065904D02*
X123971619Y-95065904D01*
X123704952Y-95370666D01*
X123819238Y-95370666D01*
X123895428Y-95408761D01*
X123933523Y-95446857D01*
X123971619Y-95523047D01*
X123971619Y-95713523D01*
X123933523Y-95789714D01*
X123895428Y-95827809D01*
X123819238Y-95865904D01*
X123590666Y-95865904D01*
X123514476Y-95827809D01*
X123476380Y-95789714D01*
X124276380Y-95142095D02*
X124314476Y-95104000D01*
X124390666Y-95065904D01*
X124581142Y-95065904D01*
X124657333Y-95104000D01*
X124695428Y-95142095D01*
X124733523Y-95218285D01*
X124733523Y-95294476D01*
X124695428Y-95408761D01*
X124238285Y-95865904D01*
X124733523Y-95865904D01*
X125076380Y-95561142D02*
X125685904Y-95561142D01*
X126066857Y-95865904D02*
X126066857Y-95065904D01*
X126257333Y-95065904D01*
X126371619Y-95104000D01*
X126447809Y-95180190D01*
X126485904Y-95256380D01*
X126524000Y-95408761D01*
X126524000Y-95523047D01*
X126485904Y-95675428D01*
X126447809Y-95751619D01*
X126371619Y-95827809D01*
X126257333Y-95865904D01*
X126066857Y-95865904D01*
X127171619Y-95827809D02*
X127095428Y-95865904D01*
X126943047Y-95865904D01*
X126866857Y-95827809D01*
X126828761Y-95751619D01*
X126828761Y-95446857D01*
X126866857Y-95370666D01*
X126943047Y-95332571D01*
X127095428Y-95332571D01*
X127171619Y-95370666D01*
X127209714Y-95446857D01*
X127209714Y-95523047D01*
X126828761Y-95599238D01*
X127476380Y-95332571D02*
X127666857Y-95865904D01*
X127857333Y-95332571D01*
X128162095Y-95865904D02*
X128162095Y-95065904D01*
X128619238Y-95865904D02*
X128276380Y-95408761D01*
X128619238Y-95065904D02*
X128162095Y-95523047D01*
X128962095Y-95865904D02*
X128962095Y-95332571D01*
X128962095Y-95065904D02*
X128924000Y-95104000D01*
X128962095Y-95142095D01*
X129000190Y-95104000D01*
X128962095Y-95065904D01*
X128962095Y-95142095D01*
X129228761Y-95332571D02*
X129533523Y-95332571D01*
X129343047Y-95065904D02*
X129343047Y-95751619D01*
X129381142Y-95827809D01*
X129457333Y-95865904D01*
X129533523Y-95865904D01*
X130371619Y-95027809D02*
X129685904Y-96056380D01*
X130638285Y-95865904D02*
X130638285Y-95065904D01*
X131095428Y-95865904D01*
X131095428Y-95065904D01*
X131590666Y-95865904D02*
X131514476Y-95827809D01*
X131476380Y-95789714D01*
X131438285Y-95713523D01*
X131438285Y-95484952D01*
X131476380Y-95408761D01*
X131514476Y-95370666D01*
X131590666Y-95332571D01*
X131704952Y-95332571D01*
X131781142Y-95370666D01*
X131819238Y-95408761D01*
X131857333Y-95484952D01*
X131857333Y-95713523D01*
X131819238Y-95789714D01*
X131781142Y-95827809D01*
X131704952Y-95865904D01*
X131590666Y-95865904D01*
X132543047Y-95865904D02*
X132543047Y-95065904D01*
X132543047Y-95827809D02*
X132466857Y-95865904D01*
X132314476Y-95865904D01*
X132238285Y-95827809D01*
X132200190Y-95789714D01*
X132162095Y-95713523D01*
X132162095Y-95484952D01*
X132200190Y-95408761D01*
X132238285Y-95370666D01*
X132314476Y-95332571D01*
X132466857Y-95332571D01*
X132543047Y-95370666D01*
X133228761Y-95827809D02*
X133152571Y-95865904D01*
X133000190Y-95865904D01*
X132924000Y-95827809D01*
X132885904Y-95751619D01*
X132885904Y-95446857D01*
X132924000Y-95370666D01*
X133000190Y-95332571D01*
X133152571Y-95332571D01*
X133228761Y-95370666D01*
X133266857Y-95446857D01*
X133266857Y-95523047D01*
X132885904Y-95599238D01*
X133609714Y-95865904D02*
X133609714Y-95065904D01*
X133876380Y-95637333D01*
X134143047Y-95065904D01*
X134143047Y-95865904D01*
X134981142Y-95789714D02*
X134943047Y-95827809D01*
X134828761Y-95865904D01*
X134752571Y-95865904D01*
X134638285Y-95827809D01*
X134562095Y-95751619D01*
X134524000Y-95675428D01*
X134485904Y-95523047D01*
X134485904Y-95408761D01*
X134524000Y-95256380D01*
X134562095Y-95180190D01*
X134638285Y-95104000D01*
X134752571Y-95065904D01*
X134828761Y-95065904D01*
X134943047Y-95104000D01*
X134981142Y-95142095D01*
X135324000Y-95065904D02*
X135324000Y-95713523D01*
X135362095Y-95789714D01*
X135400190Y-95827809D01*
X135476380Y-95865904D01*
X135628761Y-95865904D01*
X135704952Y-95827809D01*
X135743047Y-95789714D01*
X135781142Y-95713523D01*
X135781142Y-95065904D01*
X154773380Y-84153333D02*
X155487666Y-84153333D01*
X155630523Y-84200952D01*
X155725761Y-84296190D01*
X155773380Y-84439047D01*
X155773380Y-84534285D01*
X154773380Y-83200952D02*
X154773380Y-83677142D01*
X155249571Y-83724761D01*
X155201952Y-83677142D01*
X155154333Y-83581904D01*
X155154333Y-83343809D01*
X155201952Y-83248571D01*
X155249571Y-83200952D01*
X155344809Y-83153333D01*
X155582904Y-83153333D01*
X155678142Y-83200952D01*
X155725761Y-83248571D01*
X155773380Y-83343809D01*
X155773380Y-83581904D01*
X155725761Y-83677142D01*
X155678142Y-83724761D01*
X154646380Y-94440333D02*
X155360666Y-94440333D01*
X155503523Y-94487952D01*
X155598761Y-94583190D01*
X155646380Y-94726047D01*
X155646380Y-94821285D01*
X154979714Y-93535571D02*
X155646380Y-93535571D01*
X154598761Y-93773666D02*
X155313047Y-94011761D01*
X155313047Y-93392714D01*
X138731666Y-108545380D02*
X138731666Y-109259666D01*
X138684047Y-109402523D01*
X138588809Y-109497761D01*
X138445952Y-109545380D01*
X138350714Y-109545380D01*
X139112619Y-108545380D02*
X139731666Y-108545380D01*
X139398333Y-108926333D01*
X139541190Y-108926333D01*
X139636428Y-108973952D01*
X139684047Y-109021571D01*
X139731666Y-109116809D01*
X139731666Y-109354904D01*
X139684047Y-109450142D01*
X139636428Y-109497761D01*
X139541190Y-109545380D01*
X139255476Y-109545380D01*
X139160238Y-109497761D01*
X139112619Y-109450142D01*
X120951666Y-108545380D02*
X120951666Y-109259666D01*
X120904047Y-109402523D01*
X120808809Y-109497761D01*
X120665952Y-109545380D01*
X120570714Y-109545380D01*
X121380238Y-108640619D02*
X121427857Y-108593000D01*
X121523095Y-108545380D01*
X121761190Y-108545380D01*
X121856428Y-108593000D01*
X121904047Y-108640619D01*
X121951666Y-108735857D01*
X121951666Y-108831095D01*
X121904047Y-108973952D01*
X121332619Y-109545380D01*
X121951666Y-109545380D01*
X153971666Y-108672380D02*
X153971666Y-109386666D01*
X153924047Y-109529523D01*
X153828809Y-109624761D01*
X153685952Y-109672380D01*
X153590714Y-109672380D01*
X154971666Y-109672380D02*
X154400238Y-109672380D01*
X154685952Y-109672380D02*
X154685952Y-108672380D01*
X154590714Y-108815238D01*
X154495476Y-108910476D01*
X154400238Y-108958095D01*
M02*
