M48
; DRILL file {KiCad (5.1.2)-2} date 26.01.2022 05:10:35
; FORMAT={-:-/ absolute / metric / decimal}
; #@! TF.CreationDate,2022-01-26T05:10:35+01:00
; #@! TF.GenerationSoftware,Kicad,Pcbnew,(5.1.2)-2
; #@! TF.FileFunction,Plated,1,2,PTH
FMAT,2
METRIC
T1C0.762
T2C0.800
T3C0.950
T4C1.000
%
G90
G05
T1
X108.712Y-78.232
X108.712Y-103.632
X111.252Y-78.232
X111.252Y-103.632
X113.792Y-78.232
X113.792Y-103.632
X116.332Y-78.232
X116.332Y-103.632
X118.872Y-78.232
X118.872Y-103.632
X121.412Y-78.232
X121.412Y-103.632
X123.952Y-78.232
X123.952Y-103.632
X126.492Y-78.232
X126.492Y-103.632
X129.032Y-78.232
X129.032Y-103.632
X131.572Y-78.232
X131.572Y-103.632
X134.112Y-78.232
X134.112Y-103.632
X136.652Y-78.232
X136.652Y-103.632
X139.192Y-78.232
X139.192Y-103.632
X141.732Y-78.232
X141.732Y-103.632
X144.272Y-78.232
X144.272Y-103.632
T2
X118.872Y-83.693
X134.112Y-83.693
T3
X144.272Y-111.252
X146.772Y-111.252
X149.272Y-111.252
X151.772Y-111.252
X154.272Y-111.252
X157.48Y-83.566
X157.48Y-86.066
X157.48Y-88.566
X157.48Y-93.846
X157.48Y-96.346
X157.48Y-98.846
X157.48Y-101.346
X131.572Y-111.252
X134.072Y-111.252
X136.572Y-111.252
X139.072Y-111.252
X111.252Y-111.252
X113.752Y-111.252
X116.252Y-111.252
X118.752Y-111.252
X121.252Y-111.252
T4
X106.045Y-97.282
X106.045Y-99.822
X108.585Y-97.282
X108.585Y-99.822
T0
M30
