G04 #@! TF.GenerationSoftware,KiCad,Pcbnew,(5.1.2)-2*
G04 #@! TF.CreationDate,2022-01-26T05:46:38+01:00*
G04 #@! TF.ProjectId,SMuFF-Ifc2-ESP32,534d7546-462d-4496-9663-322d45535033,rev?*
G04 #@! TF.SameCoordinates,Original*
G04 #@! TF.FileFunction,Copper,L1,Top*
G04 #@! TF.FilePolarity,Positive*
%FSLAX46Y46*%
G04 Gerber Fmt 4.6, Leading zero omitted, Abs format (unit mm)*
G04 Created by KiCad (PCBNEW (5.1.2)-2) date 2022-01-26 05:46:38*
%MOMM*%
%LPD*%
G04 APERTURE LIST*
%ADD10O,1.600000X1.600000*%
%ADD11C,1.600000*%
%ADD12O,1.700000X1.700000*%
%ADD13R,1.700000X1.700000*%
%ADD14C,1.524000*%
%ADD15R,1.524000X1.524000*%
%ADD16O,1.950000X1.700000*%
%ADD17C,0.100000*%
%ADD18C,1.700000*%
%ADD19O,1.700000X1.950000*%
%ADD20C,0.500000*%
%ADD21C,0.250000*%
G04 APERTURE END LIST*
D10*
X118872000Y-83693000D03*
D11*
X134112000Y-83693000D03*
D12*
X108585000Y-99822000D03*
X106045000Y-99822000D03*
X108585000Y-97282000D03*
D13*
X106045000Y-97282000D03*
D14*
X144272000Y-103632000D03*
X141732000Y-103632000D03*
X139192000Y-103632000D03*
X136652000Y-103632000D03*
X134112000Y-103632000D03*
X131572000Y-103632000D03*
X129032000Y-103632000D03*
X126492000Y-103632000D03*
X123952000Y-103632000D03*
X121412000Y-103632000D03*
X118872000Y-103632000D03*
X116332000Y-103632000D03*
X113792000Y-103632000D03*
X111252000Y-103632000D03*
X108712000Y-103632000D03*
X108712000Y-78232000D03*
X111252000Y-78232000D03*
X113792000Y-78232000D03*
X116332000Y-78232000D03*
X118872000Y-78232000D03*
X121412000Y-78232000D03*
X123952000Y-78232000D03*
X126492000Y-78232000D03*
X129032000Y-78232000D03*
X131572000Y-78232000D03*
X134112000Y-78232000D03*
X136652000Y-78232000D03*
X139192000Y-78232000D03*
X141732000Y-78232000D03*
D15*
X144272000Y-78232000D03*
D16*
X157480000Y-83566000D03*
X157480000Y-86066000D03*
D17*
G36*
X158229504Y-87717204D02*
G01*
X158253773Y-87720804D01*
X158277571Y-87726765D01*
X158300671Y-87735030D01*
X158322849Y-87745520D01*
X158343893Y-87758133D01*
X158363598Y-87772747D01*
X158381777Y-87789223D01*
X158398253Y-87807402D01*
X158412867Y-87827107D01*
X158425480Y-87848151D01*
X158435970Y-87870329D01*
X158444235Y-87893429D01*
X158450196Y-87917227D01*
X158453796Y-87941496D01*
X158455000Y-87966000D01*
X158455000Y-89166000D01*
X158453796Y-89190504D01*
X158450196Y-89214773D01*
X158444235Y-89238571D01*
X158435970Y-89261671D01*
X158425480Y-89283849D01*
X158412867Y-89304893D01*
X158398253Y-89324598D01*
X158381777Y-89342777D01*
X158363598Y-89359253D01*
X158343893Y-89373867D01*
X158322849Y-89386480D01*
X158300671Y-89396970D01*
X158277571Y-89405235D01*
X158253773Y-89411196D01*
X158229504Y-89414796D01*
X158205000Y-89416000D01*
X156755000Y-89416000D01*
X156730496Y-89414796D01*
X156706227Y-89411196D01*
X156682429Y-89405235D01*
X156659329Y-89396970D01*
X156637151Y-89386480D01*
X156616107Y-89373867D01*
X156596402Y-89359253D01*
X156578223Y-89342777D01*
X156561747Y-89324598D01*
X156547133Y-89304893D01*
X156534520Y-89283849D01*
X156524030Y-89261671D01*
X156515765Y-89238571D01*
X156509804Y-89214773D01*
X156506204Y-89190504D01*
X156505000Y-89166000D01*
X156505000Y-87966000D01*
X156506204Y-87941496D01*
X156509804Y-87917227D01*
X156515765Y-87893429D01*
X156524030Y-87870329D01*
X156534520Y-87848151D01*
X156547133Y-87827107D01*
X156561747Y-87807402D01*
X156578223Y-87789223D01*
X156596402Y-87772747D01*
X156616107Y-87758133D01*
X156637151Y-87745520D01*
X156659329Y-87735030D01*
X156682429Y-87726765D01*
X156706227Y-87720804D01*
X156730496Y-87717204D01*
X156755000Y-87716000D01*
X158205000Y-87716000D01*
X158229504Y-87717204D01*
X158229504Y-87717204D01*
G37*
D18*
X157480000Y-88566000D03*
D16*
X157480000Y-93846000D03*
X157480000Y-96346000D03*
X157480000Y-98846000D03*
D17*
G36*
X158229504Y-100497204D02*
G01*
X158253773Y-100500804D01*
X158277571Y-100506765D01*
X158300671Y-100515030D01*
X158322849Y-100525520D01*
X158343893Y-100538133D01*
X158363598Y-100552747D01*
X158381777Y-100569223D01*
X158398253Y-100587402D01*
X158412867Y-100607107D01*
X158425480Y-100628151D01*
X158435970Y-100650329D01*
X158444235Y-100673429D01*
X158450196Y-100697227D01*
X158453796Y-100721496D01*
X158455000Y-100746000D01*
X158455000Y-101946000D01*
X158453796Y-101970504D01*
X158450196Y-101994773D01*
X158444235Y-102018571D01*
X158435970Y-102041671D01*
X158425480Y-102063849D01*
X158412867Y-102084893D01*
X158398253Y-102104598D01*
X158381777Y-102122777D01*
X158363598Y-102139253D01*
X158343893Y-102153867D01*
X158322849Y-102166480D01*
X158300671Y-102176970D01*
X158277571Y-102185235D01*
X158253773Y-102191196D01*
X158229504Y-102194796D01*
X158205000Y-102196000D01*
X156755000Y-102196000D01*
X156730496Y-102194796D01*
X156706227Y-102191196D01*
X156682429Y-102185235D01*
X156659329Y-102176970D01*
X156637151Y-102166480D01*
X156616107Y-102153867D01*
X156596402Y-102139253D01*
X156578223Y-102122777D01*
X156561747Y-102104598D01*
X156547133Y-102084893D01*
X156534520Y-102063849D01*
X156524030Y-102041671D01*
X156515765Y-102018571D01*
X156509804Y-101994773D01*
X156506204Y-101970504D01*
X156505000Y-101946000D01*
X156505000Y-100746000D01*
X156506204Y-100721496D01*
X156509804Y-100697227D01*
X156515765Y-100673429D01*
X156524030Y-100650329D01*
X156534520Y-100628151D01*
X156547133Y-100607107D01*
X156561747Y-100587402D01*
X156578223Y-100569223D01*
X156596402Y-100552747D01*
X156616107Y-100538133D01*
X156637151Y-100525520D01*
X156659329Y-100515030D01*
X156682429Y-100506765D01*
X156706227Y-100500804D01*
X156730496Y-100497204D01*
X156755000Y-100496000D01*
X158205000Y-100496000D01*
X158229504Y-100497204D01*
X158229504Y-100497204D01*
G37*
D18*
X157480000Y-101346000D03*
D19*
X139072000Y-111252000D03*
X136572000Y-111252000D03*
X134072000Y-111252000D03*
D17*
G36*
X132196504Y-110278204D02*
G01*
X132220773Y-110281804D01*
X132244571Y-110287765D01*
X132267671Y-110296030D01*
X132289849Y-110306520D01*
X132310893Y-110319133D01*
X132330598Y-110333747D01*
X132348777Y-110350223D01*
X132365253Y-110368402D01*
X132379867Y-110388107D01*
X132392480Y-110409151D01*
X132402970Y-110431329D01*
X132411235Y-110454429D01*
X132417196Y-110478227D01*
X132420796Y-110502496D01*
X132422000Y-110527000D01*
X132422000Y-111977000D01*
X132420796Y-112001504D01*
X132417196Y-112025773D01*
X132411235Y-112049571D01*
X132402970Y-112072671D01*
X132392480Y-112094849D01*
X132379867Y-112115893D01*
X132365253Y-112135598D01*
X132348777Y-112153777D01*
X132330598Y-112170253D01*
X132310893Y-112184867D01*
X132289849Y-112197480D01*
X132267671Y-112207970D01*
X132244571Y-112216235D01*
X132220773Y-112222196D01*
X132196504Y-112225796D01*
X132172000Y-112227000D01*
X130972000Y-112227000D01*
X130947496Y-112225796D01*
X130923227Y-112222196D01*
X130899429Y-112216235D01*
X130876329Y-112207970D01*
X130854151Y-112197480D01*
X130833107Y-112184867D01*
X130813402Y-112170253D01*
X130795223Y-112153777D01*
X130778747Y-112135598D01*
X130764133Y-112115893D01*
X130751520Y-112094849D01*
X130741030Y-112072671D01*
X130732765Y-112049571D01*
X130726804Y-112025773D01*
X130723204Y-112001504D01*
X130722000Y-111977000D01*
X130722000Y-110527000D01*
X130723204Y-110502496D01*
X130726804Y-110478227D01*
X130732765Y-110454429D01*
X130741030Y-110431329D01*
X130751520Y-110409151D01*
X130764133Y-110388107D01*
X130778747Y-110368402D01*
X130795223Y-110350223D01*
X130813402Y-110333747D01*
X130833107Y-110319133D01*
X130854151Y-110306520D01*
X130876329Y-110296030D01*
X130899429Y-110287765D01*
X130923227Y-110281804D01*
X130947496Y-110278204D01*
X130972000Y-110277000D01*
X132172000Y-110277000D01*
X132196504Y-110278204D01*
X132196504Y-110278204D01*
G37*
D18*
X131572000Y-111252000D03*
D19*
X121252000Y-111252000D03*
X118752000Y-111252000D03*
X116252000Y-111252000D03*
X113752000Y-111252000D03*
D17*
G36*
X111876504Y-110278204D02*
G01*
X111900773Y-110281804D01*
X111924571Y-110287765D01*
X111947671Y-110296030D01*
X111969849Y-110306520D01*
X111990893Y-110319133D01*
X112010598Y-110333747D01*
X112028777Y-110350223D01*
X112045253Y-110368402D01*
X112059867Y-110388107D01*
X112072480Y-110409151D01*
X112082970Y-110431329D01*
X112091235Y-110454429D01*
X112097196Y-110478227D01*
X112100796Y-110502496D01*
X112102000Y-110527000D01*
X112102000Y-111977000D01*
X112100796Y-112001504D01*
X112097196Y-112025773D01*
X112091235Y-112049571D01*
X112082970Y-112072671D01*
X112072480Y-112094849D01*
X112059867Y-112115893D01*
X112045253Y-112135598D01*
X112028777Y-112153777D01*
X112010598Y-112170253D01*
X111990893Y-112184867D01*
X111969849Y-112197480D01*
X111947671Y-112207970D01*
X111924571Y-112216235D01*
X111900773Y-112222196D01*
X111876504Y-112225796D01*
X111852000Y-112227000D01*
X110652000Y-112227000D01*
X110627496Y-112225796D01*
X110603227Y-112222196D01*
X110579429Y-112216235D01*
X110556329Y-112207970D01*
X110534151Y-112197480D01*
X110513107Y-112184867D01*
X110493402Y-112170253D01*
X110475223Y-112153777D01*
X110458747Y-112135598D01*
X110444133Y-112115893D01*
X110431520Y-112094849D01*
X110421030Y-112072671D01*
X110412765Y-112049571D01*
X110406804Y-112025773D01*
X110403204Y-112001504D01*
X110402000Y-111977000D01*
X110402000Y-110527000D01*
X110403204Y-110502496D01*
X110406804Y-110478227D01*
X110412765Y-110454429D01*
X110421030Y-110431329D01*
X110431520Y-110409151D01*
X110444133Y-110388107D01*
X110458747Y-110368402D01*
X110475223Y-110350223D01*
X110493402Y-110333747D01*
X110513107Y-110319133D01*
X110534151Y-110306520D01*
X110556329Y-110296030D01*
X110579429Y-110287765D01*
X110603227Y-110281804D01*
X110627496Y-110278204D01*
X110652000Y-110277000D01*
X111852000Y-110277000D01*
X111876504Y-110278204D01*
X111876504Y-110278204D01*
G37*
D18*
X111252000Y-111252000D03*
D19*
X154272000Y-111252000D03*
X151772000Y-111252000D03*
X149272000Y-111252000D03*
X146772000Y-111252000D03*
D17*
G36*
X144896504Y-110278204D02*
G01*
X144920773Y-110281804D01*
X144944571Y-110287765D01*
X144967671Y-110296030D01*
X144989849Y-110306520D01*
X145010893Y-110319133D01*
X145030598Y-110333747D01*
X145048777Y-110350223D01*
X145065253Y-110368402D01*
X145079867Y-110388107D01*
X145092480Y-110409151D01*
X145102970Y-110431329D01*
X145111235Y-110454429D01*
X145117196Y-110478227D01*
X145120796Y-110502496D01*
X145122000Y-110527000D01*
X145122000Y-111977000D01*
X145120796Y-112001504D01*
X145117196Y-112025773D01*
X145111235Y-112049571D01*
X145102970Y-112072671D01*
X145092480Y-112094849D01*
X145079867Y-112115893D01*
X145065253Y-112135598D01*
X145048777Y-112153777D01*
X145030598Y-112170253D01*
X145010893Y-112184867D01*
X144989849Y-112197480D01*
X144967671Y-112207970D01*
X144944571Y-112216235D01*
X144920773Y-112222196D01*
X144896504Y-112225796D01*
X144872000Y-112227000D01*
X143672000Y-112227000D01*
X143647496Y-112225796D01*
X143623227Y-112222196D01*
X143599429Y-112216235D01*
X143576329Y-112207970D01*
X143554151Y-112197480D01*
X143533107Y-112184867D01*
X143513402Y-112170253D01*
X143495223Y-112153777D01*
X143478747Y-112135598D01*
X143464133Y-112115893D01*
X143451520Y-112094849D01*
X143441030Y-112072671D01*
X143432765Y-112049571D01*
X143426804Y-112025773D01*
X143423204Y-112001504D01*
X143422000Y-111977000D01*
X143422000Y-110527000D01*
X143423204Y-110502496D01*
X143426804Y-110478227D01*
X143432765Y-110454429D01*
X143441030Y-110431329D01*
X143451520Y-110409151D01*
X143464133Y-110388107D01*
X143478747Y-110368402D01*
X143495223Y-110350223D01*
X143513402Y-110333747D01*
X143533107Y-110319133D01*
X143554151Y-110306520D01*
X143576329Y-110296030D01*
X143599429Y-110287765D01*
X143623227Y-110281804D01*
X143647496Y-110278204D01*
X143672000Y-110277000D01*
X144872000Y-110277000D01*
X144896504Y-110278204D01*
X144896504Y-110278204D01*
G37*
D18*
X144272000Y-111252000D03*
D20*
X106045000Y-97282000D02*
X108585000Y-97282000D01*
X108585000Y-78359000D02*
X108712000Y-78232000D01*
X108585000Y-97282000D02*
X108585000Y-78359000D01*
X157605000Y-96092000D02*
X157480000Y-96092000D01*
X109521000Y-96346000D02*
X108585000Y-97282000D01*
X157480000Y-96346000D02*
X109521000Y-96346000D01*
D21*
X152534000Y-111252000D02*
X152534000Y-111127000D01*
D20*
X107735001Y-100671999D02*
X108585000Y-99822000D01*
X121252000Y-111127000D02*
X119472000Y-109347000D01*
X121252000Y-111252000D02*
X121252000Y-111127000D01*
X119472000Y-109347000D02*
X111317010Y-109347000D01*
X111317010Y-109347000D02*
X107188000Y-105217990D01*
X107188000Y-105217990D02*
X107188000Y-101219000D01*
X107188000Y-101219000D02*
X107735001Y-100671999D01*
X132470372Y-112150372D02*
X131572000Y-111252000D01*
X133477000Y-113157000D02*
X132470372Y-112150372D01*
X152492000Y-113157000D02*
X133477000Y-113157000D01*
X154272000Y-111252000D02*
X154272000Y-111377000D01*
X154272000Y-111377000D02*
X152492000Y-113157000D01*
X106045000Y-101024081D02*
X106045000Y-99822000D01*
X106045000Y-108966000D02*
X106045000Y-101024081D01*
X110236000Y-113157000D02*
X106045000Y-108966000D01*
X130742000Y-113157000D02*
X110236000Y-113157000D01*
X131572000Y-111252000D02*
X131572000Y-112327000D01*
X131572000Y-112327000D02*
X130742000Y-113157000D01*
D21*
X141732000Y-103251000D02*
X141732000Y-103632000D01*
X157480000Y-98846000D02*
X146137000Y-98846000D01*
X146137000Y-98846000D02*
X141732000Y-103251000D01*
X134873999Y-104393999D02*
X134112000Y-103632000D01*
X144949238Y-101346000D02*
X143184999Y-103110239D01*
X157480000Y-101346000D02*
X144949238Y-101346000D01*
X143184999Y-103110239D02*
X143184999Y-103787763D01*
X143184999Y-103787763D02*
X142070762Y-104902000D01*
X142070762Y-104902000D02*
X135382000Y-104902000D01*
X135382000Y-104902000D02*
X134873999Y-104393999D01*
M02*
