G04 #@! TF.GenerationSoftware,KiCad,Pcbnew,(5.1.2)-2*
G04 #@! TF.CreationDate,2022-01-25T10:57:59+01:00*
G04 #@! TF.ProjectId,SMuFF-Ifc2-ESP32,534d7546-462d-4496-9663-322d45535033,rev?*
G04 #@! TF.SameCoordinates,Original*
G04 #@! TF.FileFunction,Legend,Bot*
G04 #@! TF.FilePolarity,Positive*
%FSLAX46Y46*%
G04 Gerber Fmt 4.6, Leading zero omitted, Abs format (unit mm)*
G04 Created by KiCad (PCBNEW (5.1.2)-2) date 2022-01-25 10:57:59*
%MOMM*%
%LPD*%
G04 APERTURE LIST*
%ADD10C,0.150000*%
%ADD11C,0.120000*%
G04 APERTURE END LIST*
D10*
X111323428Y-106537285D02*
X111323428Y-107299190D01*
X111704380Y-106918238D02*
X110942476Y-106918238D01*
X110704380Y-108251571D02*
X110704380Y-107775380D01*
X111180571Y-107727761D01*
X111132952Y-107775380D01*
X111085333Y-107870619D01*
X111085333Y-108108714D01*
X111132952Y-108203952D01*
X111180571Y-108251571D01*
X111275809Y-108299190D01*
X111513904Y-108299190D01*
X111609142Y-108251571D01*
X111656761Y-108203952D01*
X111704380Y-108108714D01*
X111704380Y-107870619D01*
X111656761Y-107775380D01*
X111609142Y-107727761D01*
X110704380Y-108584904D02*
X111704380Y-108918238D01*
X110704380Y-109251571D01*
D11*
X108585000Y-98044000D02*
X108585000Y-99060000D01*
X106045000Y-98044000D02*
X106045000Y-99060000D01*
D10*
X106116428Y-87344666D02*
X106116428Y-88106571D01*
X106497380Y-87725619D02*
X105735476Y-87725619D01*
X105497380Y-89058952D02*
X105497380Y-88582761D01*
X105973571Y-88535142D01*
X105925952Y-88582761D01*
X105878333Y-88678000D01*
X105878333Y-88916095D01*
X105925952Y-89011333D01*
X105973571Y-89058952D01*
X106068809Y-89106571D01*
X106306904Y-89106571D01*
X106402142Y-89058952D01*
X106449761Y-89011333D01*
X106497380Y-88916095D01*
X106497380Y-88678000D01*
X106449761Y-88582761D01*
X106402142Y-88535142D01*
X105497380Y-89392285D02*
X106497380Y-89725619D01*
X105497380Y-90058952D01*
X106497380Y-91154190D02*
X105497380Y-91154190D01*
X105497380Y-91392285D01*
X105545000Y-91535142D01*
X105640238Y-91630380D01*
X105735476Y-91678000D01*
X105925952Y-91725619D01*
X106068809Y-91725619D01*
X106259285Y-91678000D01*
X106354523Y-91630380D01*
X106449761Y-91535142D01*
X106497380Y-91392285D01*
X106497380Y-91154190D01*
X105830714Y-92582761D02*
X106497380Y-92582761D01*
X105830714Y-92154190D02*
X106354523Y-92154190D01*
X106449761Y-92201809D01*
X106497380Y-92297047D01*
X106497380Y-92439904D01*
X106449761Y-92535142D01*
X106402142Y-92582761D01*
X106449761Y-93439904D02*
X106497380Y-93344666D01*
X106497380Y-93154190D01*
X106449761Y-93058952D01*
X106354523Y-93011333D01*
X105973571Y-93011333D01*
X105878333Y-93058952D01*
X105830714Y-93154190D01*
X105830714Y-93344666D01*
X105878333Y-93439904D01*
X105973571Y-93487523D01*
X106068809Y-93487523D01*
X106164047Y-93011333D01*
X105830714Y-93773238D02*
X105830714Y-94154190D01*
X105497380Y-93916095D02*
X106354523Y-93916095D01*
X106449761Y-93963714D01*
X106497380Y-94058952D01*
X106497380Y-94154190D01*
X108656428Y-87289190D02*
X108656428Y-88051095D01*
X109037380Y-87670142D02*
X108275476Y-87670142D01*
X108037380Y-89003476D02*
X108037380Y-88527285D01*
X108513571Y-88479666D01*
X108465952Y-88527285D01*
X108418333Y-88622523D01*
X108418333Y-88860619D01*
X108465952Y-88955857D01*
X108513571Y-89003476D01*
X108608809Y-89051095D01*
X108846904Y-89051095D01*
X108942142Y-89003476D01*
X108989761Y-88955857D01*
X109037380Y-88860619D01*
X109037380Y-88622523D01*
X108989761Y-88527285D01*
X108942142Y-88479666D01*
X108037380Y-89336809D02*
X109037380Y-89670142D01*
X108037380Y-90003476D01*
X108989761Y-91051095D02*
X109037380Y-91193952D01*
X109037380Y-91432047D01*
X108989761Y-91527285D01*
X108942142Y-91574904D01*
X108846904Y-91622523D01*
X108751666Y-91622523D01*
X108656428Y-91574904D01*
X108608809Y-91527285D01*
X108561190Y-91432047D01*
X108513571Y-91241571D01*
X108465952Y-91146333D01*
X108418333Y-91098714D01*
X108323095Y-91051095D01*
X108227857Y-91051095D01*
X108132619Y-91098714D01*
X108085000Y-91146333D01*
X108037380Y-91241571D01*
X108037380Y-91479666D01*
X108085000Y-91622523D01*
X109037380Y-92051095D02*
X108037380Y-92051095D01*
X108751666Y-92384428D01*
X108037380Y-92717761D01*
X109037380Y-92717761D01*
X108370714Y-93622523D02*
X109037380Y-93622523D01*
X108370714Y-93193952D02*
X108894523Y-93193952D01*
X108989761Y-93241571D01*
X109037380Y-93336809D01*
X109037380Y-93479666D01*
X108989761Y-93574904D01*
X108942142Y-93622523D01*
X108513571Y-94432047D02*
X108513571Y-94098714D01*
X109037380Y-94098714D02*
X108037380Y-94098714D01*
X108037380Y-94574904D01*
X108513571Y-95289190D02*
X108513571Y-94955857D01*
X109037380Y-94955857D02*
X108037380Y-94955857D01*
X108037380Y-95432047D01*
X155138333Y-88447571D02*
X154995476Y-88495190D01*
X154947857Y-88542809D01*
X154900238Y-88638047D01*
X154900238Y-88780904D01*
X154947857Y-88876142D01*
X154995476Y-88923761D01*
X155090714Y-88971380D01*
X155471666Y-88971380D01*
X155471666Y-87971380D01*
X155138333Y-87971380D01*
X155043095Y-88019000D01*
X154995476Y-88066619D01*
X154947857Y-88161857D01*
X154947857Y-88257095D01*
X154995476Y-88352333D01*
X155043095Y-88399952D01*
X155138333Y-88447571D01*
X155471666Y-88447571D01*
X154614523Y-87971380D02*
X154043095Y-87971380D01*
X154328809Y-88971380D02*
X154328809Y-87971380D01*
X153709761Y-88971380D02*
X153709761Y-87971380D01*
X153138333Y-88971380D01*
X153138333Y-87971380D01*
X155074857Y-84018380D02*
X155551047Y-84018380D01*
X155551047Y-83018380D01*
X154741523Y-83494571D02*
X154408190Y-83494571D01*
X154265333Y-84018380D02*
X154741523Y-84018380D01*
X154741523Y-83018380D01*
X154265333Y-83018380D01*
X153836761Y-84018380D02*
X153836761Y-83018380D01*
X153598666Y-83018380D01*
X153455809Y-83066000D01*
X153360571Y-83161238D01*
X153312952Y-83256476D01*
X153265333Y-83446952D01*
X153265333Y-83589809D01*
X153312952Y-83780285D01*
X153360571Y-83875523D01*
X153455809Y-83970761D01*
X153598666Y-84018380D01*
X153836761Y-84018380D01*
X155066904Y-85606000D02*
X155162142Y-85558380D01*
X155305000Y-85558380D01*
X155447857Y-85606000D01*
X155543095Y-85701238D01*
X155590714Y-85796476D01*
X155638333Y-85986952D01*
X155638333Y-86129809D01*
X155590714Y-86320285D01*
X155543095Y-86415523D01*
X155447857Y-86510761D01*
X155305000Y-86558380D01*
X155209761Y-86558380D01*
X155066904Y-86510761D01*
X155019285Y-86463142D01*
X155019285Y-86129809D01*
X155209761Y-86129809D01*
X154590714Y-86558380D02*
X154590714Y-85558380D01*
X154019285Y-86558380D01*
X154019285Y-85558380D01*
X153543095Y-86558380D02*
X153543095Y-85558380D01*
X153305000Y-85558380D01*
X153162142Y-85606000D01*
X153066904Y-85701238D01*
X153019285Y-85796476D01*
X152971666Y-85986952D01*
X152971666Y-86129809D01*
X153019285Y-86320285D01*
X153066904Y-86415523D01*
X153162142Y-86510761D01*
X153305000Y-86558380D01*
X153543095Y-86558380D01*
X155392285Y-101750761D02*
X155249428Y-101798380D01*
X155011333Y-101798380D01*
X154916095Y-101750761D01*
X154868476Y-101703142D01*
X154820857Y-101607904D01*
X154820857Y-101512666D01*
X154868476Y-101417428D01*
X154916095Y-101369809D01*
X155011333Y-101322190D01*
X155201809Y-101274571D01*
X155297047Y-101226952D01*
X155344666Y-101179333D01*
X155392285Y-101084095D01*
X155392285Y-100988857D01*
X155344666Y-100893619D01*
X155297047Y-100846000D01*
X155201809Y-100798380D01*
X154963714Y-100798380D01*
X154820857Y-100846000D01*
X154392285Y-101798380D02*
X154392285Y-100798380D01*
X154154190Y-100798380D01*
X154011333Y-100846000D01*
X153916095Y-100941238D01*
X153868476Y-101036476D01*
X153820857Y-101226952D01*
X153820857Y-101369809D01*
X153868476Y-101560285D01*
X153916095Y-101655523D01*
X154011333Y-101750761D01*
X154154190Y-101798380D01*
X154392285Y-101798380D01*
X153439904Y-101512666D02*
X152963714Y-101512666D01*
X153535142Y-101798380D02*
X153201809Y-100798380D01*
X152868476Y-101798380D01*
X155495476Y-99337761D02*
X155352619Y-99385380D01*
X155114523Y-99385380D01*
X155019285Y-99337761D01*
X154971666Y-99290142D01*
X154924047Y-99194904D01*
X154924047Y-99099666D01*
X154971666Y-99004428D01*
X155019285Y-98956809D01*
X155114523Y-98909190D01*
X155305000Y-98861571D01*
X155400238Y-98813952D01*
X155447857Y-98766333D01*
X155495476Y-98671095D01*
X155495476Y-98575857D01*
X155447857Y-98480619D01*
X155400238Y-98433000D01*
X155305000Y-98385380D01*
X155066904Y-98385380D01*
X154924047Y-98433000D01*
X153924047Y-99290142D02*
X153971666Y-99337761D01*
X154114523Y-99385380D01*
X154209761Y-99385380D01*
X154352619Y-99337761D01*
X154447857Y-99242523D01*
X154495476Y-99147285D01*
X154543095Y-98956809D01*
X154543095Y-98813952D01*
X154495476Y-98623476D01*
X154447857Y-98528238D01*
X154352619Y-98433000D01*
X154209761Y-98385380D01*
X154114523Y-98385380D01*
X153971666Y-98433000D01*
X153924047Y-98480619D01*
X153019285Y-99385380D02*
X153495476Y-99385380D01*
X153495476Y-98385380D01*
X155590714Y-96464428D02*
X154828809Y-96464428D01*
X155209761Y-96845380D02*
X155209761Y-96083476D01*
X153876428Y-95845380D02*
X154352619Y-95845380D01*
X154400238Y-96321571D01*
X154352619Y-96273952D01*
X154257380Y-96226333D01*
X154019285Y-96226333D01*
X153924047Y-96273952D01*
X153876428Y-96321571D01*
X153828809Y-96416809D01*
X153828809Y-96654904D01*
X153876428Y-96750142D01*
X153924047Y-96797761D01*
X154019285Y-96845380D01*
X154257380Y-96845380D01*
X154352619Y-96797761D01*
X154400238Y-96750142D01*
X153543095Y-95845380D02*
X153209761Y-96845380D01*
X152876428Y-95845380D01*
X155066904Y-93480000D02*
X155162142Y-93432380D01*
X155305000Y-93432380D01*
X155447857Y-93480000D01*
X155543095Y-93575238D01*
X155590714Y-93670476D01*
X155638333Y-93860952D01*
X155638333Y-94003809D01*
X155590714Y-94194285D01*
X155543095Y-94289523D01*
X155447857Y-94384761D01*
X155305000Y-94432380D01*
X155209761Y-94432380D01*
X155066904Y-94384761D01*
X155019285Y-94337142D01*
X155019285Y-94003809D01*
X155209761Y-94003809D01*
X154590714Y-94432380D02*
X154590714Y-93432380D01*
X154019285Y-94432380D01*
X154019285Y-93432380D01*
X153543095Y-94432380D02*
X153543095Y-93432380D01*
X153305000Y-93432380D01*
X153162142Y-93480000D01*
X153066904Y-93575238D01*
X153019285Y-93670476D01*
X152971666Y-93860952D01*
X152971666Y-94003809D01*
X153019285Y-94194285D01*
X153066904Y-94289523D01*
X153162142Y-94384761D01*
X153305000Y-94432380D01*
X153543095Y-94432380D01*
X131516428Y-106664285D02*
X131516428Y-107426190D01*
X131897380Y-107045238D02*
X131135476Y-107045238D01*
X130897380Y-108378571D02*
X130897380Y-107902380D01*
X131373571Y-107854761D01*
X131325952Y-107902380D01*
X131278333Y-107997619D01*
X131278333Y-108235714D01*
X131325952Y-108330952D01*
X131373571Y-108378571D01*
X131468809Y-108426190D01*
X131706904Y-108426190D01*
X131802142Y-108378571D01*
X131849761Y-108330952D01*
X131897380Y-108235714D01*
X131897380Y-107997619D01*
X131849761Y-107902380D01*
X131802142Y-107854761D01*
X130897380Y-108711904D02*
X131897380Y-109045238D01*
X130897380Y-109378571D01*
X133485000Y-107188095D02*
X133437380Y-107092857D01*
X133437380Y-106950000D01*
X133485000Y-106807142D01*
X133580238Y-106711904D01*
X133675476Y-106664285D01*
X133865952Y-106616666D01*
X134008809Y-106616666D01*
X134199285Y-106664285D01*
X134294523Y-106711904D01*
X134389761Y-106807142D01*
X134437380Y-106950000D01*
X134437380Y-107045238D01*
X134389761Y-107188095D01*
X134342142Y-107235714D01*
X134008809Y-107235714D01*
X134008809Y-107045238D01*
X134437380Y-107664285D02*
X133437380Y-107664285D01*
X134437380Y-108235714D01*
X133437380Y-108235714D01*
X134437380Y-108711904D02*
X133437380Y-108711904D01*
X133437380Y-108950000D01*
X133485000Y-109092857D01*
X133580238Y-109188095D01*
X133675476Y-109235714D01*
X133865952Y-109283333D01*
X134008809Y-109283333D01*
X134199285Y-109235714D01*
X134294523Y-109188095D01*
X134389761Y-109092857D01*
X134437380Y-108950000D01*
X134437380Y-108711904D01*
X135977380Y-107823095D02*
X135977380Y-108394523D01*
X136977380Y-108108809D02*
X135977380Y-108108809D01*
X135977380Y-108632619D02*
X136977380Y-109299285D01*
X135977380Y-109299285D02*
X136977380Y-108632619D01*
X139517380Y-108418333D02*
X139041190Y-108085000D01*
X139517380Y-107846904D02*
X138517380Y-107846904D01*
X138517380Y-108227857D01*
X138565000Y-108323095D01*
X138612619Y-108370714D01*
X138707857Y-108418333D01*
X138850714Y-108418333D01*
X138945952Y-108370714D01*
X138993571Y-108323095D01*
X139041190Y-108227857D01*
X139041190Y-107846904D01*
X138517380Y-108751666D02*
X139517380Y-109418333D01*
X138517380Y-109418333D02*
X139517380Y-108751666D01*
X144343428Y-106664285D02*
X144343428Y-107426190D01*
X144724380Y-107045238D02*
X143962476Y-107045238D01*
X143724380Y-108378571D02*
X143724380Y-107902380D01*
X144200571Y-107854761D01*
X144152952Y-107902380D01*
X144105333Y-107997619D01*
X144105333Y-108235714D01*
X144152952Y-108330952D01*
X144200571Y-108378571D01*
X144295809Y-108426190D01*
X144533904Y-108426190D01*
X144629142Y-108378571D01*
X144676761Y-108330952D01*
X144724380Y-108235714D01*
X144724380Y-107997619D01*
X144676761Y-107902380D01*
X144629142Y-107854761D01*
X143724380Y-108711904D02*
X144724380Y-109045238D01*
X143724380Y-109378571D01*
X146312000Y-107188095D02*
X146264380Y-107092857D01*
X146264380Y-106950000D01*
X146312000Y-106807142D01*
X146407238Y-106711904D01*
X146502476Y-106664285D01*
X146692952Y-106616666D01*
X146835809Y-106616666D01*
X147026285Y-106664285D01*
X147121523Y-106711904D01*
X147216761Y-106807142D01*
X147264380Y-106950000D01*
X147264380Y-107045238D01*
X147216761Y-107188095D01*
X147169142Y-107235714D01*
X146835809Y-107235714D01*
X146835809Y-107045238D01*
X147264380Y-107664285D02*
X146264380Y-107664285D01*
X147264380Y-108235714D01*
X146264380Y-108235714D01*
X147264380Y-108711904D02*
X146264380Y-108711904D01*
X146264380Y-108950000D01*
X146312000Y-109092857D01*
X146407238Y-109188095D01*
X146502476Y-109235714D01*
X146692952Y-109283333D01*
X146835809Y-109283333D01*
X147026285Y-109235714D01*
X147121523Y-109188095D01*
X147216761Y-109092857D01*
X147264380Y-108950000D01*
X147264380Y-108711904D01*
X148804380Y-107823095D02*
X148804380Y-108394523D01*
X149804380Y-108108809D02*
X148804380Y-108108809D01*
X148804380Y-108632619D02*
X149804380Y-109299285D01*
X148804380Y-109299285D02*
X149804380Y-108632619D01*
X152217380Y-108418333D02*
X151741190Y-108085000D01*
X152217380Y-107846904D02*
X151217380Y-107846904D01*
X151217380Y-108227857D01*
X151265000Y-108323095D01*
X151312619Y-108370714D01*
X151407857Y-108418333D01*
X151550714Y-108418333D01*
X151645952Y-108370714D01*
X151693571Y-108323095D01*
X151741190Y-108227857D01*
X151741190Y-107846904D01*
X151217380Y-108751666D02*
X152217380Y-109418333D01*
X151217380Y-109418333D02*
X152217380Y-108751666D01*
X154233571Y-104235571D02*
X154233571Y-104568904D01*
X154757380Y-104711761D02*
X154757380Y-104235571D01*
X153757380Y-104235571D01*
X153757380Y-104711761D01*
X154757380Y-105664142D02*
X154757380Y-105092714D01*
X154757380Y-105378428D02*
X153757380Y-105378428D01*
X153900238Y-105283190D01*
X153995476Y-105187952D01*
X154043095Y-105092714D01*
X154709761Y-106045095D02*
X154757380Y-106187952D01*
X154757380Y-106426047D01*
X154709761Y-106521285D01*
X154662142Y-106568904D01*
X154566904Y-106616523D01*
X154471666Y-106616523D01*
X154376428Y-106568904D01*
X154328809Y-106521285D01*
X154281190Y-106426047D01*
X154233571Y-106235571D01*
X154185952Y-106140333D01*
X154138333Y-106092714D01*
X154043095Y-106045095D01*
X153947857Y-106045095D01*
X153852619Y-106092714D01*
X153805000Y-106140333D01*
X153757380Y-106235571D01*
X153757380Y-106473666D01*
X153805000Y-106616523D01*
X153757380Y-106902238D02*
X153757380Y-107473666D01*
X154757380Y-107187952D02*
X153757380Y-107187952D01*
X153757380Y-107997476D02*
X153757380Y-108187952D01*
X153805000Y-108283190D01*
X153900238Y-108378428D01*
X154090714Y-108426047D01*
X154424047Y-108426047D01*
X154614523Y-108378428D01*
X154709761Y-108283190D01*
X154757380Y-108187952D01*
X154757380Y-107997476D01*
X154709761Y-107902238D01*
X154614523Y-107807000D01*
X154424047Y-107759380D01*
X154090714Y-107759380D01*
X153900238Y-107807000D01*
X153805000Y-107902238D01*
X153757380Y-107997476D01*
X154757380Y-108854619D02*
X153757380Y-108854619D01*
X153757380Y-109235571D01*
X153805000Y-109330809D01*
X153852619Y-109378428D01*
X153947857Y-109426047D01*
X154090714Y-109426047D01*
X154185952Y-109378428D01*
X154233571Y-109330809D01*
X154281190Y-109235571D01*
X154281190Y-108854619D01*
X113165000Y-107188095D02*
X113117380Y-107092857D01*
X113117380Y-106950000D01*
X113165000Y-106807142D01*
X113260238Y-106711904D01*
X113355476Y-106664285D01*
X113545952Y-106616666D01*
X113688809Y-106616666D01*
X113879285Y-106664285D01*
X113974523Y-106711904D01*
X114069761Y-106807142D01*
X114117380Y-106950000D01*
X114117380Y-107045238D01*
X114069761Y-107188095D01*
X114022142Y-107235714D01*
X113688809Y-107235714D01*
X113688809Y-107045238D01*
X114117380Y-107664285D02*
X113117380Y-107664285D01*
X114117380Y-108235714D01*
X113117380Y-108235714D01*
X114117380Y-108711904D02*
X113117380Y-108711904D01*
X113117380Y-108950000D01*
X113165000Y-109092857D01*
X113260238Y-109188095D01*
X113355476Y-109235714D01*
X113545952Y-109283333D01*
X113688809Y-109283333D01*
X113879285Y-109235714D01*
X113974523Y-109188095D01*
X114069761Y-109092857D01*
X114117380Y-108950000D01*
X114117380Y-108711904D01*
X115657380Y-107823095D02*
X115657380Y-108394523D01*
X116657380Y-108108809D02*
X115657380Y-108108809D01*
X115657380Y-108632619D02*
X116657380Y-109299285D01*
X115657380Y-109299285D02*
X116657380Y-108632619D01*
X119197380Y-108418333D02*
X118721190Y-108085000D01*
X119197380Y-107846904D02*
X118197380Y-107846904D01*
X118197380Y-108227857D01*
X118245000Y-108323095D01*
X118292619Y-108370714D01*
X118387857Y-108418333D01*
X118530714Y-108418333D01*
X118625952Y-108370714D01*
X118673571Y-108323095D01*
X118721190Y-108227857D01*
X118721190Y-107846904D01*
X118197380Y-108751666D02*
X119197380Y-109418333D01*
X118197380Y-109418333D02*
X119197380Y-108751666D01*
X120737380Y-106640476D02*
X120737380Y-107211904D01*
X121737380Y-106926190D02*
X120737380Y-106926190D01*
X121213571Y-107878571D02*
X121261190Y-108021428D01*
X121308809Y-108069047D01*
X121404047Y-108116666D01*
X121546904Y-108116666D01*
X121642142Y-108069047D01*
X121689761Y-108021428D01*
X121737380Y-107926190D01*
X121737380Y-107545238D01*
X120737380Y-107545238D01*
X120737380Y-107878571D01*
X120785000Y-107973809D01*
X120832619Y-108021428D01*
X120927857Y-108069047D01*
X121023095Y-108069047D01*
X121118333Y-108021428D01*
X121165952Y-107973809D01*
X121213571Y-107878571D01*
X121213571Y-107545238D01*
X121737380Y-108545238D02*
X120737380Y-108545238D01*
X121213571Y-108545238D02*
X121213571Y-109116666D01*
X121737380Y-109116666D02*
X120737380Y-109116666D01*
M02*
